<mxfile host="Electron" modified="2024-03-22T07:02:08.424Z" agent="Mozilla/5.0 (Macintosh; Intel Mac OS X 10_15_7) AppleWebKit/537.36 (KHTML, like Gecko) draw.io/24.0.4 Chrome/120.0.6099.109 Electron/28.1.0 Safari/537.36" etag="C4S3_NDubgGXN29GQj2I" version="24.0.4" type="device" pages="2">
  <diagram name="Login Flow" id="yZMyLNfEH0QN9sd60p3B">
    <mxGraphModel dx="1941" dy="999" grid="1" gridSize="10" guides="1" tooltips="1" connect="1" arrows="1" fold="1" page="1" pageScale="1" pageWidth="827" pageHeight="1169" math="0" shadow="0">
      <root>
        <mxCell id="0" />
        <mxCell id="1" parent="0" />
        <mxCell id="XIRvb3u4yRxEIeP394ts-3" style="edgeStyle=orthogonalEdgeStyle;rounded=0;orthogonalLoop=1;jettySize=auto;html=1;exitX=0.5;exitY=1;exitDx=0;exitDy=0;entryX=0.5;entryY=0;entryDx=0;entryDy=0;" parent="1" source="XIRvb3u4yRxEIeP394ts-1" target="XIRvb3u4yRxEIeP394ts-2" edge="1">
          <mxGeometry relative="1" as="geometry" />
        </mxCell>
        <mxCell id="XIRvb3u4yRxEIeP394ts-1" value="GameCore.Awake()" style="rounded=0;whiteSpace=wrap;html=1;fillColor=#fff2cc;strokeColor=#d6b656;" parent="1" vertex="1">
          <mxGeometry width="120" height="60" as="geometry" />
        </mxCell>
        <mxCell id="XIRvb3u4yRxEIeP394ts-5" style="edgeStyle=orthogonalEdgeStyle;rounded=0;orthogonalLoop=1;jettySize=auto;html=1;exitX=0.5;exitY=1;exitDx=0;exitDy=0;entryX=0.5;entryY=0;entryDx=0;entryDy=0;" parent="1" source="XIRvb3u4yRxEIeP394ts-2" target="XIRvb3u4yRxEIeP394ts-4" edge="1">
          <mxGeometry relative="1" as="geometry" />
        </mxCell>
        <mxCell id="XIRvb3u4yRxEIeP394ts-2" value="GameCore.Start()" style="rounded=0;whiteSpace=wrap;html=1;" parent="1" vertex="1">
          <mxGeometry y="80" width="120" height="60" as="geometry" />
        </mxCell>
        <mxCell id="XIRvb3u4yRxEIeP394ts-7" style="edgeStyle=orthogonalEdgeStyle;rounded=0;orthogonalLoop=1;jettySize=auto;html=1;exitX=0.5;exitY=1;exitDx=0;exitDy=0;entryX=0.5;entryY=0;entryDx=0;entryDy=0;" parent="1" source="XIRvb3u4yRxEIeP394ts-4" target="XIRvb3u4yRxEIeP394ts-6" edge="1">
          <mxGeometry relative="1" as="geometry" />
        </mxCell>
        <mxCell id="XIRvb3u4yRxEIeP394ts-4" value="GameCore&lt;br&gt;.getPlayerData()&lt;br&gt;&lt;i&gt;* ReadPlayerData()&lt;/i&gt;" style="rounded=0;whiteSpace=wrap;html=1;" parent="1" vertex="1">
          <mxGeometry y="160" width="120" height="60" as="geometry" />
        </mxCell>
        <mxCell id="twTSxkOko8yl1DZ957Ty-1" style="edgeStyle=orthogonalEdgeStyle;rounded=0;orthogonalLoop=1;jettySize=auto;html=1;exitX=0.5;exitY=1;exitDx=0;exitDy=0;entryX=0.5;entryY=0;entryDx=0;entryDy=0;" parent="1" source="XIRvb3u4yRxEIeP394ts-6" target="XIRvb3u4yRxEIeP394ts-13" edge="1">
          <mxGeometry relative="1" as="geometry" />
        </mxCell>
        <mxCell id="XIRvb3u4yRxEIeP394ts-6" value="GameCore&lt;br&gt;.ReadPlayerData()" style="rounded=0;whiteSpace=wrap;html=1;" parent="1" vertex="1">
          <mxGeometry y="240" width="120" height="60" as="geometry" />
        </mxCell>
        <mxCell id="XIRvb3u4yRxEIeP394ts-9" style="edgeStyle=orthogonalEdgeStyle;rounded=0;orthogonalLoop=1;jettySize=auto;html=1;exitX=1;exitY=0.5;exitDx=0;exitDy=0;entryX=0;entryY=0.5;entryDx=0;entryDy=0;" parent="1" source="XIRvb3u4yRxEIeP394ts-8" target="XIRvb3u4yRxEIeP394ts-6" edge="1">
          <mxGeometry relative="1" as="geometry" />
        </mxCell>
        <mxCell id="XIRvb3u4yRxEIeP394ts-8" value="PlayerData {&lt;br&gt;string Account&lt;br&gt;int FinalScene&lt;br&gt;int TutorialStep&lt;br&gt;string Language&lt;br&gt;string SignedPlatform&lt;br&gt;MetaBucketAccountInfo MbaInfo }" style="rounded=0;whiteSpace=wrap;html=1;" parent="1" vertex="1">
          <mxGeometry x="-250" y="210" width="210" height="120" as="geometry" />
        </mxCell>
        <mxCell id="XIRvb3u4yRxEIeP394ts-12" style="edgeStyle=orthogonalEdgeStyle;rounded=0;orthogonalLoop=1;jettySize=auto;html=1;exitX=1;exitY=0.5;exitDx=0;exitDy=0;" parent="1" source="XIRvb3u4yRxEIeP394ts-10" target="XIRvb3u4yRxEIeP394ts-8" edge="1">
          <mxGeometry relative="1" as="geometry" />
        </mxCell>
        <mxCell id="XIRvb3u4yRxEIeP394ts-10" value="MetaBucketAccountInfo {&lt;br&gt;string Uid&lt;br&gt;string HashId&lt;br&gt;int OptId }" style="rounded=0;whiteSpace=wrap;html=1;" parent="1" vertex="1">
          <mxGeometry x="-440" y="230" width="160" height="80" as="geometry" />
        </mxCell>
        <mxCell id="XIRvb3u4yRxEIeP394ts-16" style="edgeStyle=orthogonalEdgeStyle;rounded=0;orthogonalLoop=1;jettySize=auto;html=1;exitX=0.5;exitY=1;exitDx=0;exitDy=0;entryX=0.5;entryY=0;entryDx=0;entryDy=0;" parent="1" source="XIRvb3u4yRxEIeP394ts-13" target="XIRvb3u4yRxEIeP394ts-15" edge="1">
          <mxGeometry relative="1" as="geometry" />
        </mxCell>
        <mxCell id="XIRvb3u4yRxEIeP394ts-19" style="edgeStyle=orthogonalEdgeStyle;rounded=0;orthogonalLoop=1;jettySize=auto;html=1;exitX=1;exitY=0.5;exitDx=0;exitDy=0;entryX=1;entryY=0.5;entryDx=0;entryDy=0;" parent="1" source="XIRvb3u4yRxEIeP394ts-13" target="XIRvb3u4yRxEIeP394ts-17" edge="1">
          <mxGeometry relative="1" as="geometry" />
        </mxCell>
        <mxCell id="XIRvb3u4yRxEIeP394ts-13" value="PlayerData == null" style="rhombus;whiteSpace=wrap;html=1;" parent="1" vertex="1">
          <mxGeometry x="-5" y="340" width="130" height="60" as="geometry" />
        </mxCell>
        <mxCell id="XIRvb3u4yRxEIeP394ts-18" style="edgeStyle=orthogonalEdgeStyle;rounded=0;orthogonalLoop=1;jettySize=auto;html=1;exitX=0.5;exitY=1;exitDx=0;exitDy=0;entryX=0.5;entryY=0;entryDx=0;entryDy=0;" parent="1" source="XIRvb3u4yRxEIeP394ts-15" target="XIRvb3u4yRxEIeP394ts-17" edge="1">
          <mxGeometry relative="1" as="geometry" />
        </mxCell>
        <mxCell id="XIRvb3u4yRxEIeP394ts-15" value="Save Player Data&lt;br&gt;SiginedPlatform = 0" style="rounded=0;whiteSpace=wrap;html=1;" parent="1" vertex="1">
          <mxGeometry y="430" width="120" height="60" as="geometry" />
        </mxCell>
        <mxCell id="XIRvb3u4yRxEIeP394ts-22" style="edgeStyle=orthogonalEdgeStyle;rounded=0;orthogonalLoop=1;jettySize=auto;html=1;exitX=0.5;exitY=1;exitDx=0;exitDy=0;" parent="1" source="XIRvb3u4yRxEIeP394ts-17" target="XIRvb3u4yRxEIeP394ts-21" edge="1">
          <mxGeometry relative="1" as="geometry" />
        </mxCell>
        <mxCell id="XIRvb3u4yRxEIeP394ts-17" value="PlayerData.MbaInfo = DeepLinkObj.Instance.MbaInfo&lt;br&gt;Overwrite" style="rounded=0;whiteSpace=wrap;html=1;fillColor=#dae8fc;strokeColor=#6c8ebf;" parent="1" vertex="1">
          <mxGeometry x="-30" y="520" width="180" height="60" as="geometry" />
        </mxCell>
        <mxCell id="XIRvb3u4yRxEIeP394ts-24" style="edgeStyle=orthogonalEdgeStyle;rounded=0;orthogonalLoop=1;jettySize=auto;html=1;exitX=0.5;exitY=1;exitDx=0;exitDy=0;entryX=0.5;entryY=0;entryDx=0;entryDy=0;" parent="1" source="XIRvb3u4yRxEIeP394ts-21" target="XIRvb3u4yRxEIeP394ts-23" edge="1">
          <mxGeometry relative="1" as="geometry" />
        </mxCell>
        <mxCell id="XIRvb3u4yRxEIeP394ts-21" value="Initializer.Start()" style="rounded=0;whiteSpace=wrap;html=1;" parent="1" vertex="1">
          <mxGeometry y="620" width="120" height="60" as="geometry" />
        </mxCell>
        <mxCell id="XIRvb3u4yRxEIeP394ts-26" style="edgeStyle=orthogonalEdgeStyle;rounded=0;orthogonalLoop=1;jettySize=auto;html=1;exitX=0.5;exitY=1;exitDx=0;exitDy=0;entryX=0.5;entryY=0;entryDx=0;entryDy=0;" parent="1" source="XIRvb3u4yRxEIeP394ts-23" target="XIRvb3u4yRxEIeP394ts-25" edge="1">
          <mxGeometry relative="1" as="geometry" />
        </mxCell>
        <mxCell id="XIRvb3u4yRxEIeP394ts-23" value="LoadManager" style="rounded=0;whiteSpace=wrap;html=1;" parent="1" vertex="1">
          <mxGeometry y="720" width="120" height="60" as="geometry" />
        </mxCell>
        <mxCell id="XIRvb3u4yRxEIeP394ts-28" style="edgeStyle=orthogonalEdgeStyle;rounded=0;orthogonalLoop=1;jettySize=auto;html=1;exitX=0.5;exitY=1;exitDx=0;exitDy=0;entryX=0.5;entryY=0;entryDx=0;entryDy=0;" parent="1" source="XIRvb3u4yRxEIeP394ts-25" target="XIRvb3u4yRxEIeP394ts-27" edge="1">
          <mxGeometry relative="1" as="geometry" />
        </mxCell>
        <mxCell id="XIRvb3u4yRxEIeP394ts-25" value="GameCore&lt;br&gt;.OnCompletedInit()&lt;br&gt;: new Spawner()&lt;br&gt;: webHttp.Init()&lt;br&gt;: webTcp.Init()&lt;br&gt;: .initUI()" style="rounded=0;whiteSpace=wrap;html=1;" parent="1" vertex="1">
          <mxGeometry y="820" width="120" height="120" as="geometry" />
        </mxCell>
        <mxCell id="XIRvb3u4yRxEIeP394ts-32" style="edgeStyle=orthogonalEdgeStyle;rounded=0;orthogonalLoop=1;jettySize=auto;html=1;exitX=0.5;exitY=1;exitDx=0;exitDy=0;entryX=0.5;entryY=0;entryDx=0;entryDy=0;" parent="1" source="XIRvb3u4yRxEIeP394ts-27" target="XIRvb3u4yRxEIeP394ts-31" edge="1">
          <mxGeometry relative="1" as="geometry" />
        </mxCell>
        <mxCell id="XIRvb3u4yRxEIeP394ts-27" value="GameCore&lt;br&gt;.requestServerCheck()" style="rounded=0;whiteSpace=wrap;html=1;" parent="1" vertex="1">
          <mxGeometry x="-5" y="980" width="130" height="60" as="geometry" />
        </mxCell>
        <mxCell id="XIRvb3u4yRxEIeP394ts-30" style="edgeStyle=orthogonalEdgeStyle;rounded=0;orthogonalLoop=1;jettySize=auto;html=1;exitX=1;exitY=0.5;exitDx=0;exitDy=0;entryX=0;entryY=0.5;entryDx=0;entryDy=0;" parent="1" source="XIRvb3u4yRxEIeP394ts-29" target="XIRvb3u4yRxEIeP394ts-27" edge="1">
          <mxGeometry relative="1" as="geometry" />
        </mxCell>
        <mxCell id="XIRvb3u4yRxEIeP394ts-29" value="AppConstants.Version&lt;br&gt;10104" style="rounded=0;whiteSpace=wrap;html=1;fillColor=#d5e8d4;strokeColor=#82b366;" parent="1" vertex="1">
          <mxGeometry x="-200" y="980" width="160" height="60" as="geometry" />
        </mxCell>
        <mxCell id="XIRvb3u4yRxEIeP394ts-35" style="edgeStyle=orthogonalEdgeStyle;rounded=0;orthogonalLoop=1;jettySize=auto;html=1;exitX=0.5;exitY=1;exitDx=0;exitDy=0;entryX=0.5;entryY=0;entryDx=0;entryDy=0;" parent="1" source="XIRvb3u4yRxEIeP394ts-31" target="XIRvb3u4yRxEIeP394ts-34" edge="1">
          <mxGeometry relative="1" as="geometry" />
        </mxCell>
        <mxCell id="XIRvb3u4yRxEIeP394ts-31" value="WebHttp&lt;br&gt;.RequestServerCheck()" style="rounded=0;whiteSpace=wrap;html=1;" parent="1" vertex="1">
          <mxGeometry x="-15" y="1080" width="150" height="60" as="geometry" />
        </mxCell>
        <mxCell id="XIRvb3u4yRxEIeP394ts-37" style="edgeStyle=orthogonalEdgeStyle;rounded=0;orthogonalLoop=1;jettySize=auto;html=1;exitX=0.5;exitY=1;exitDx=0;exitDy=0;entryX=0.5;entryY=0;entryDx=0;entryDy=0;" parent="1" source="XIRvb3u4yRxEIeP394ts-34" target="XIRvb3u4yRxEIeP394ts-36" edge="1">
          <mxGeometry relative="1" as="geometry" />
        </mxCell>
        <mxCell id="XIRvb3u4yRxEIeP394ts-39" style="edgeStyle=orthogonalEdgeStyle;rounded=0;orthogonalLoop=1;jettySize=auto;html=1;exitX=0;exitY=0.5;exitDx=0;exitDy=0;entryX=1;entryY=0.5;entryDx=0;entryDy=0;" parent="1" source="XIRvb3u4yRxEIeP394ts-34" target="XIRvb3u4yRxEIeP394ts-38" edge="1">
          <mxGeometry relative="1" as="geometry" />
        </mxCell>
        <mxCell id="XIRvb3u4yRxEIeP394ts-34" value="WebHttp&lt;br&gt;.ResponseServerCheck()" style="rhombus;whiteSpace=wrap;html=1;" parent="1" vertex="1">
          <mxGeometry x="-52.5" y="1180" width="225" height="80" as="geometry" />
        </mxCell>
        <mxCell id="XIRvb3u4yRxEIeP394ts-43" style="edgeStyle=orthogonalEdgeStyle;rounded=0;orthogonalLoop=1;jettySize=auto;html=1;exitX=0.5;exitY=1;exitDx=0;exitDy=0;entryX=0.5;entryY=0;entryDx=0;entryDy=0;" parent="1" source="XIRvb3u4yRxEIeP394ts-36" target="XIRvb3u4yRxEIeP394ts-40" edge="1">
          <mxGeometry relative="1" as="geometry" />
        </mxCell>
        <mxCell id="XIRvb3u4yRxEIeP394ts-36" value="GameCore&lt;br&gt;.OnServerChecked()" style="rounded=0;whiteSpace=wrap;html=1;" parent="1" vertex="1">
          <mxGeometry y="1300" width="120" height="60" as="geometry" />
        </mxCell>
        <mxCell id="XIRvb3u4yRxEIeP394ts-38" value="Update or Maintenance" style="rounded=0;whiteSpace=wrap;html=1;" parent="1" vertex="1">
          <mxGeometry x="-200" y="1190" width="120" height="60" as="geometry" />
        </mxCell>
        <mxCell id="XIRvb3u4yRxEIeP394ts-44" style="edgeStyle=orthogonalEdgeStyle;rounded=0;orthogonalLoop=1;jettySize=auto;html=1;exitX=0.5;exitY=1;exitDx=0;exitDy=0;entryX=0.5;entryY=0;entryDx=0;entryDy=0;" parent="1" source="XIRvb3u4yRxEIeP394ts-40" target="XIRvb3u4yRxEIeP394ts-41" edge="1">
          <mxGeometry relative="1" as="geometry" />
        </mxCell>
        <mxCell id="XIRvb3u4yRxEIeP394ts-40" value="GameCore&lt;br&gt;.requestServerInfo()&lt;br&gt;serverType = 2 (Battle)" style="rounded=0;whiteSpace=wrap;html=1;" parent="1" vertex="1">
          <mxGeometry y="1400" width="120" height="60" as="geometry" />
        </mxCell>
        <mxCell id="XIRvb3u4yRxEIeP394ts-45" style="edgeStyle=orthogonalEdgeStyle;rounded=0;orthogonalLoop=1;jettySize=auto;html=1;exitX=0.5;exitY=1;exitDx=0;exitDy=0;entryX=0.5;entryY=0;entryDx=0;entryDy=0;" parent="1" source="XIRvb3u4yRxEIeP394ts-41" target="XIRvb3u4yRxEIeP394ts-42" edge="1">
          <mxGeometry relative="1" as="geometry" />
        </mxCell>
        <mxCell id="XIRvb3u4yRxEIeP394ts-41" value="GameCore&lt;br&gt;.ResponseServerInfo()" style="rounded=0;whiteSpace=wrap;html=1;" parent="1" vertex="1">
          <mxGeometry x="-5" y="1500" width="130" height="60" as="geometry" />
        </mxCell>
        <mxCell id="XIRvb3u4yRxEIeP394ts-47" style="edgeStyle=orthogonalEdgeStyle;rounded=0;orthogonalLoop=1;jettySize=auto;html=1;exitX=0;exitY=0.5;exitDx=0;exitDy=0;entryX=1;entryY=0.5;entryDx=0;entryDy=0;" parent="1" source="XIRvb3u4yRxEIeP394ts-42" target="XIRvb3u4yRxEIeP394ts-46" edge="1">
          <mxGeometry relative="1" as="geometry" />
        </mxCell>
        <mxCell id="twTSxkOko8yl1DZ957Ty-3" style="edgeStyle=orthogonalEdgeStyle;rounded=0;orthogonalLoop=1;jettySize=auto;html=1;exitX=0.5;exitY=1;exitDx=0;exitDy=0;entryX=0.5;entryY=0;entryDx=0;entryDy=0;" parent="1" source="XIRvb3u4yRxEIeP394ts-42" target="twTSxkOko8yl1DZ957Ty-2" edge="1">
          <mxGeometry relative="1" as="geometry" />
        </mxCell>
        <mxCell id="XIRvb3u4yRxEIeP394ts-42" value="res.result == 0" style="rhombus;whiteSpace=wrap;html=1;" parent="1" vertex="1">
          <mxGeometry x="7.5" y="1590" width="105" height="50" as="geometry" />
        </mxCell>
        <mxCell id="XIRvb3u4yRxEIeP394ts-46" value="GameCore&lt;br&gt;.OnDisconnected()" style="rounded=0;whiteSpace=wrap;html=1;" parent="1" vertex="1">
          <mxGeometry x="-145" y="1585" width="120" height="60" as="geometry" />
        </mxCell>
        <mxCell id="XIRvb3u4yRxEIeP394ts-53" style="edgeStyle=orthogonalEdgeStyle;rounded=0;orthogonalLoop=1;jettySize=auto;html=1;exitX=0.5;exitY=1;exitDx=0;exitDy=0;" parent="1" source="XIRvb3u4yRxEIeP394ts-49" target="XIRvb3u4yRxEIeP394ts-51" edge="1">
          <mxGeometry relative="1" as="geometry" />
        </mxCell>
        <mxCell id="XIRvb3u4yRxEIeP394ts-59" style="edgeStyle=orthogonalEdgeStyle;rounded=0;orthogonalLoop=1;jettySize=auto;html=1;exitX=1;exitY=0.5;exitDx=0;exitDy=0;entryX=0;entryY=0.5;entryDx=0;entryDy=0;" parent="1" source="XIRvb3u4yRxEIeP394ts-49" target="XIRvb3u4yRxEIeP394ts-55" edge="1">
          <mxGeometry relative="1" as="geometry" />
        </mxCell>
        <mxCell id="twTSxkOko8yl1DZ957Ty-81" style="rounded=0;orthogonalLoop=1;jettySize=auto;html=1;exitX=1;exitY=0;exitDx=0;exitDy=0;entryX=0;entryY=1;entryDx=0;entryDy=0;entryPerimeter=0;dashed=1;dashPattern=1 4;endArrow=none;endFill=0;" parent="1" source="XIRvb3u4yRxEIeP394ts-49" target="twTSxkOko8yl1DZ957Ty-59" edge="1">
          <mxGeometry relative="1" as="geometry" />
        </mxCell>
        <mxCell id="XIRvb3u4yRxEIeP394ts-49" value="PlayerData.MbaInfo != null&lt;br&gt;(MetaBucket으로 실행)" style="rhombus;whiteSpace=wrap;html=1;fillColor=#fff2cc;strokeColor=#d6b656;" parent="1" vertex="1">
          <mxGeometry x="-40" y="1865" width="200" height="95" as="geometry" />
        </mxCell>
        <mxCell id="twTSxkOko8yl1DZ957Ty-55" style="edgeStyle=orthogonalEdgeStyle;rounded=0;orthogonalLoop=1;jettySize=auto;html=1;exitX=0;exitY=0.5;exitDx=0;exitDy=0;entryX=1;entryY=0.75;entryDx=0;entryDy=0;" parent="1" source="XIRvb3u4yRxEIeP394ts-51" target="twTSxkOko8yl1DZ957Ty-60" edge="1">
          <mxGeometry relative="1" as="geometry">
            <mxPoint x="700" y="2011.25" as="targetPoint" />
          </mxGeometry>
        </mxCell>
        <mxCell id="r2GIe1Zh89TINreVmSlf-2" style="edgeStyle=orthogonalEdgeStyle;rounded=0;orthogonalLoop=1;jettySize=auto;html=1;exitX=0.5;exitY=1;exitDx=0;exitDy=0;entryX=0.5;entryY=0;entryDx=0;entryDy=0;" parent="1" source="XIRvb3u4yRxEIeP394ts-51" target="r2GIe1Zh89TINreVmSlf-1" edge="1">
          <mxGeometry relative="1" as="geometry" />
        </mxCell>
        <mxCell id="XIRvb3u4yRxEIeP394ts-51" value="createIntroProcessor(false)" style="rounded=0;whiteSpace=wrap;html=1;" parent="1" vertex="1">
          <mxGeometry x="-20" y="2000" width="160" height="40" as="geometry" />
        </mxCell>
        <mxCell id="twTSxkOko8yl1DZ957Ty-56" style="edgeStyle=orthogonalEdgeStyle;rounded=0;orthogonalLoop=1;jettySize=auto;html=1;exitX=0;exitY=0.5;exitDx=0;exitDy=0;entryX=1;entryY=0.5;entryDx=0;entryDy=0;" parent="1" source="XIRvb3u4yRxEIeP394ts-52" target="twTSxkOko8yl1DZ957Ty-19" edge="1">
          <mxGeometry relative="1" as="geometry" />
        </mxCell>
        <mxCell id="XIRvb3u4yRxEIeP394ts-52" value="signInProcessor.SignIn&lt;br&gt;(SignInPlatform.MetaBucket)" style="rounded=0;whiteSpace=wrap;html=1;" parent="1" vertex="1">
          <mxGeometry x="-20" y="2120" width="160" height="40" as="geometry" />
        </mxCell>
        <mxCell id="twTSxkOko8yl1DZ957Ty-14" style="edgeStyle=orthogonalEdgeStyle;rounded=0;orthogonalLoop=1;jettySize=auto;html=1;exitX=0.5;exitY=1;exitDx=0;exitDy=0;entryX=0.5;entryY=0;entryDx=0;entryDy=0;" parent="1" source="XIRvb3u4yRxEIeP394ts-55" target="twTSxkOko8yl1DZ957Ty-12" edge="1">
          <mxGeometry relative="1" as="geometry" />
        </mxCell>
        <mxCell id="r2GIe1Zh89TINreVmSlf-5" style="edgeStyle=orthogonalEdgeStyle;rounded=0;orthogonalLoop=1;jettySize=auto;html=1;exitX=0.25;exitY=1;exitDx=0;exitDy=0;entryX=1;entryY=0.5;entryDx=0;entryDy=0;" parent="1" source="XIRvb3u4yRxEIeP394ts-55" target="twTSxkOko8yl1DZ957Ty-60" edge="1">
          <mxGeometry relative="1" as="geometry" />
        </mxCell>
        <mxCell id="XIRvb3u4yRxEIeP394ts-55" value="createIntroProcessor&lt;br&gt;(signInProcessor.IsRegistered&lt;br&gt;= .account is not null)" style="rounded=0;whiteSpace=wrap;html=1;" parent="1" vertex="1">
          <mxGeometry x="205.01" y="1882.5" width="180" height="60" as="geometry" />
        </mxCell>
        <mxCell id="XIRvb3u4yRxEIeP394ts-58" style="edgeStyle=orthogonalEdgeStyle;rounded=0;orthogonalLoop=1;jettySize=auto;html=1;exitX=0.5;exitY=1;exitDx=0;exitDy=0;entryX=0.5;entryY=0;entryDx=0;entryDy=0;" parent="1" source="XIRvb3u4yRxEIeP394ts-56" target="XIRvb3u4yRxEIeP394ts-49" edge="1">
          <mxGeometry relative="1" as="geometry" />
        </mxCell>
        <mxCell id="XIRvb3u4yRxEIeP394ts-56" value="new SignInProcessor()&lt;br&gt;siginInProcessor.Init()" style="rounded=0;whiteSpace=wrap;html=1;" parent="1" vertex="1">
          <mxGeometry x="-20" y="1770" width="160" height="60" as="geometry" />
        </mxCell>
        <mxCell id="twTSxkOko8yl1DZ957Ty-4" style="edgeStyle=orthogonalEdgeStyle;rounded=0;orthogonalLoop=1;jettySize=auto;html=1;exitX=0.5;exitY=1;exitDx=0;exitDy=0;entryX=0.5;entryY=0;entryDx=0;entryDy=0;" parent="1" source="twTSxkOko8yl1DZ957Ty-2" target="XIRvb3u4yRxEIeP394ts-56" edge="1">
          <mxGeometry relative="1" as="geometry" />
        </mxCell>
        <mxCell id="twTSxkOko8yl1DZ957Ty-2" value="introView.Init()&lt;br&gt;: login buttons 노출" style="rounded=0;whiteSpace=wrap;html=1;" parent="1" vertex="1">
          <mxGeometry y="1680" width="120" height="60" as="geometry" />
        </mxCell>
        <mxCell id="twTSxkOko8yl1DZ957Ty-6" style="edgeStyle=orthogonalEdgeStyle;rounded=0;orthogonalLoop=1;jettySize=auto;html=1;exitX=1;exitY=0.5;exitDx=0;exitDy=0;entryX=0;entryY=0.5;entryDx=0;entryDy=0;" parent="1" source="twTSxkOko8yl1DZ957Ty-5" target="XIRvb3u4yRxEIeP394ts-56" edge="1">
          <mxGeometry relative="1" as="geometry" />
        </mxCell>
        <mxCell id="twTSxkOko8yl1DZ957Ty-5" value="signInProcessor.account = GameCore.PlayerData.Account" style="rounded=0;whiteSpace=wrap;html=1;" parent="1" vertex="1">
          <mxGeometry x="-240" y="1770" width="180" height="60" as="geometry" />
        </mxCell>
        <mxCell id="twTSxkOko8yl1DZ957Ty-16" style="edgeStyle=orthogonalEdgeStyle;rounded=0;orthogonalLoop=1;jettySize=auto;html=1;exitX=0.5;exitY=1;exitDx=0;exitDy=0;entryX=0.5;entryY=0;entryDx=0;entryDy=0;" parent="1" source="twTSxkOko8yl1DZ957Ty-12" target="r2GIe1Zh89TINreVmSlf-6" edge="1">
          <mxGeometry relative="1" as="geometry">
            <mxPoint x="295.0149999999999" y="2095" as="targetPoint" />
          </mxGeometry>
        </mxCell>
        <mxCell id="twTSxkOko8yl1DZ957Ty-12" value="GameCore&lt;br&gt;.createIntroProcessor&lt;br&gt;IsRegistered?" style="rhombus;whiteSpace=wrap;html=1;" parent="1" vertex="1">
          <mxGeometry x="180" y="1980" width="230" height="70" as="geometry" />
        </mxCell>
        <mxCell id="twTSxkOko8yl1DZ957Ty-23" style="edgeStyle=orthogonalEdgeStyle;rounded=0;orthogonalLoop=1;jettySize=auto;html=1;exitX=0.5;exitY=1;exitDx=0;exitDy=0;entryX=0.5;entryY=0;entryDx=0;entryDy=0;" parent="1" target="twTSxkOko8yl1DZ957Ty-22" edge="1">
          <mxGeometry relative="1" as="geometry">
            <mxPoint x="295.0149999999999" y="2155" as="sourcePoint" />
          </mxGeometry>
        </mxCell>
        <mxCell id="twTSxkOko8yl1DZ957Ty-25" style="edgeStyle=orthogonalEdgeStyle;rounded=0;orthogonalLoop=1;jettySize=auto;html=1;exitX=0.5;exitY=1;exitDx=0;exitDy=0;entryX=0.5;entryY=0;entryDx=0;entryDy=0;" parent="1" source="twTSxkOko8yl1DZ957Ty-19" target="twTSxkOko8yl1DZ957Ty-24" edge="1">
          <mxGeometry relative="1" as="geometry" />
        </mxCell>
        <mxCell id="twTSxkOko8yl1DZ957Ty-19" value=".OnSignedIn&lt;br&gt;: introView.ShowChannelUI()" style="rounded=0;whiteSpace=wrap;html=1;" parent="1" vertex="1">
          <mxGeometry x="-410" y="2110" width="290" height="60" as="geometry" />
        </mxCell>
        <mxCell id="r2GIe1Zh89TINreVmSlf-8" style="edgeStyle=orthogonalEdgeStyle;rounded=0;orthogonalLoop=1;jettySize=auto;html=1;exitX=0;exitY=0.5;exitDx=0;exitDy=0;entryX=1;entryY=0.75;entryDx=0;entryDy=0;" parent="1" source="twTSxkOko8yl1DZ957Ty-22" target="twTSxkOko8yl1DZ957Ty-19" edge="1">
          <mxGeometry relative="1" as="geometry">
            <Array as="points">
              <mxPoint x="-40" y="2225" />
              <mxPoint x="-40" y="2155" />
            </Array>
          </mxGeometry>
        </mxCell>
        <mxCell id="twTSxkOko8yl1DZ957Ty-22" value="signInProcessor.SignIn&lt;br&gt;(Last Login Platform)" style="rounded=0;whiteSpace=wrap;html=1;" parent="1" vertex="1">
          <mxGeometry x="150.01" y="2195" width="290" height="60" as="geometry" />
        </mxCell>
        <mxCell id="twTSxkOko8yl1DZ957Ty-28" style="edgeStyle=orthogonalEdgeStyle;rounded=0;orthogonalLoop=1;jettySize=auto;html=1;exitX=0.5;exitY=1;exitDx=0;exitDy=0;entryX=0;entryY=0.25;entryDx=0;entryDy=0;" parent="1" source="twTSxkOko8yl1DZ957Ty-24" target="twTSxkOko8yl1DZ957Ty-26" edge="1">
          <mxGeometry relative="1" as="geometry" />
        </mxCell>
        <mxCell id="twTSxkOko8yl1DZ957Ty-24" value=".OnSelectedChannel&lt;br&gt;: signInProcessor.TryRequestServerLogin()" style="rounded=0;whiteSpace=wrap;html=1;" parent="1" vertex="1">
          <mxGeometry x="-410" y="2210" width="290" height="60" as="geometry" />
        </mxCell>
        <mxCell id="twTSxkOko8yl1DZ957Ty-41" style="edgeStyle=orthogonalEdgeStyle;rounded=0;orthogonalLoop=1;jettySize=auto;html=1;exitX=0.5;exitY=1;exitDx=0;exitDy=0;entryX=0.5;entryY=0;entryDx=0;entryDy=0;" parent="1" source="twTSxkOko8yl1DZ957Ty-26" target="twTSxkOko8yl1DZ957Ty-40" edge="1">
          <mxGeometry relative="1" as="geometry" />
        </mxCell>
        <mxCell id="twTSxkOko8yl1DZ957Ty-26" value="WebHttp.RequestLogin()" style="rounded=0;whiteSpace=wrap;html=1;" parent="1" vertex="1">
          <mxGeometry x="-63.139999999999986" y="2310" width="155" height="60" as="geometry" />
        </mxCell>
        <mxCell id="K_UThX5w2FyFl1FN_E_i-3" style="edgeStyle=orthogonalEdgeStyle;rounded=0;orthogonalLoop=1;jettySize=auto;html=1;exitX=0.5;exitY=1;exitDx=0;exitDy=0;entryX=0.5;entryY=0;entryDx=0;entryDy=0;" parent="1" source="twTSxkOko8yl1DZ957Ty-29" target="K_UThX5w2FyFl1FN_E_i-1" edge="1">
          <mxGeometry relative="1" as="geometry" />
        </mxCell>
        <mxCell id="twTSxkOko8yl1DZ957Ty-29" value="GameCore.OnServerLogin()&lt;br&gt;: requestIsDeletedAccount()" style="rounded=0;whiteSpace=wrap;html=1;" parent="1" vertex="1">
          <mxGeometry x="-68.13999999999999" y="2490" width="165" height="40" as="geometry" />
        </mxCell>
        <mxCell id="twTSxkOko8yl1DZ957Ty-36" style="edgeStyle=orthogonalEdgeStyle;rounded=0;orthogonalLoop=1;jettySize=auto;html=1;exitX=0.5;exitY=1;exitDx=0;exitDy=0;entryX=0.5;entryY=0;entryDx=0;entryDy=0;" parent="1" source="twTSxkOko8yl1DZ957Ty-31" target="twTSxkOko8yl1DZ957Ty-34" edge="1">
          <mxGeometry relative="1" as="geometry" />
        </mxCell>
        <mxCell id="twTSxkOko8yl1DZ957Ty-31" value="GameCore&lt;br&gt;.OnResponseUserInfo()" style="rounded=0;whiteSpace=wrap;html=1;" parent="1" vertex="1">
          <mxGeometry x="-68.12999999999998" y="2720" width="165" height="60" as="geometry" />
        </mxCell>
        <mxCell id="twTSxkOko8yl1DZ957Ty-68" style="edgeStyle=orthogonalEdgeStyle;rounded=0;orthogonalLoop=1;jettySize=auto;html=1;exitX=0.5;exitY=1;exitDx=0;exitDy=0;entryX=0.5;entryY=0;entryDx=0;entryDy=0;" parent="1" source="twTSxkOko8yl1DZ957Ty-34" target="twTSxkOko8yl1DZ957Ty-65" edge="1">
          <mxGeometry relative="1" as="geometry" />
        </mxCell>
        <mxCell id="twTSxkOko8yl1DZ957Ty-34" value="IntroProcessorForFirstUser&lt;br&gt;.OnServerLogin()&lt;br&gt;: characterSettingView.Hide()" style="rounded=0;whiteSpace=wrap;html=1;" parent="1" vertex="1">
          <mxGeometry x="-71.25999999999999" y="2830" width="171.25" height="60" as="geometry" />
        </mxCell>
        <mxCell id="twTSxkOko8yl1DZ957Ty-42" style="edgeStyle=orthogonalEdgeStyle;rounded=0;orthogonalLoop=1;jettySize=auto;html=1;exitX=0.5;exitY=1;exitDx=0;exitDy=0;entryX=0.5;entryY=0;entryDx=0;entryDy=0;" parent="1" source="twTSxkOko8yl1DZ957Ty-40" target="twTSxkOko8yl1DZ957Ty-29" edge="1">
          <mxGeometry relative="1" as="geometry" />
        </mxCell>
        <mxCell id="twTSxkOko8yl1DZ957Ty-45" style="edgeStyle=orthogonalEdgeStyle;rounded=0;orthogonalLoop=1;jettySize=auto;html=1;exitX=0;exitY=0.5;exitDx=0;exitDy=0;entryX=1;entryY=0.5;entryDx=0;entryDy=0;strokeColor=#000000;" parent="1" source="twTSxkOko8yl1DZ957Ty-40" target="twTSxkOko8yl1DZ957Ty-44" edge="1">
          <mxGeometry relative="1" as="geometry" />
        </mxCell>
        <mxCell id="twTSxkOko8yl1DZ957Ty-40" value="res.result == 0" style="rhombus;whiteSpace=wrap;html=1;" parent="1" vertex="1">
          <mxGeometry x="-48.75999999999999" y="2410" width="126.25" height="40" as="geometry" />
        </mxCell>
        <mxCell id="twTSxkOko8yl1DZ957Ty-49" style="edgeStyle=orthogonalEdgeStyle;rounded=0;orthogonalLoop=1;jettySize=auto;html=1;exitX=0.5;exitY=1;exitDx=0;exitDy=0;strokeColor=#000000;entryX=0.5;entryY=0;entryDx=0;entryDy=0;" parent="1" source="twTSxkOko8yl1DZ957Ty-44" target="twTSxkOko8yl1DZ957Ty-50" edge="1">
          <mxGeometry relative="1" as="geometry" />
        </mxCell>
        <mxCell id="twTSxkOko8yl1DZ957Ty-44" value="GameCore&lt;br&gt;.OnServerLoginFailed(int)" style="rounded=0;whiteSpace=wrap;html=1;" parent="1" vertex="1">
          <mxGeometry x="-345" y="2410" width="165" height="40" as="geometry" />
        </mxCell>
        <mxCell id="twTSxkOko8yl1DZ957Ty-64" style="edgeStyle=orthogonalEdgeStyle;rounded=0;orthogonalLoop=1;jettySize=auto;html=1;exitX=0;exitY=0.5;exitDx=0;exitDy=0;entryX=0;entryY=0.25;entryDx=0;entryDy=0;strokeColor=#000000;" parent="1" source="twTSxkOko8yl1DZ957Ty-47" target="twTSxkOko8yl1DZ957Ty-60" edge="1">
          <mxGeometry relative="1" as="geometry">
            <Array as="points">
              <mxPoint x="-720" y="2615" />
              <mxPoint x="-720" y="1926" />
            </Array>
          </mxGeometry>
        </mxCell>
        <mxCell id="twTSxkOko8yl1DZ957Ty-47" value="introView.ShowHideSigninbuttons(true)&lt;br&gt;introView.ShowChannelUI(false)&lt;br&gt;instance.siginInProcessor.SignOut()" style="rounded=0;whiteSpace=wrap;html=1;" parent="1" vertex="1">
          <mxGeometry x="-700" y="2585" width="241.25" height="60" as="geometry" />
        </mxCell>
        <mxCell id="twTSxkOko8yl1DZ957Ty-54" style="edgeStyle=orthogonalEdgeStyle;rounded=0;orthogonalLoop=1;jettySize=auto;html=1;exitX=0.5;exitY=1;exitDx=0;exitDy=0;entryX=0.5;entryY=0;entryDx=0;entryDy=0;" parent="1" source="twTSxkOko8yl1DZ957Ty-50" target="twTSxkOko8yl1DZ957Ty-53" edge="1">
          <mxGeometry relative="1" as="geometry" />
        </mxCell>
        <mxCell id="r2GIe1Zh89TINreVmSlf-4" style="edgeStyle=orthogonalEdgeStyle;rounded=0;orthogonalLoop=1;jettySize=auto;html=1;exitX=0;exitY=0.5;exitDx=0;exitDy=0;entryX=1;entryY=0.5;entryDx=0;entryDy=0;" parent="1" source="twTSxkOko8yl1DZ957Ty-50" target="twTSxkOko8yl1DZ957Ty-47" edge="1">
          <mxGeometry relative="1" as="geometry" />
        </mxCell>
        <mxCell id="twTSxkOko8yl1DZ957Ty-50" value="PlayerData.Account == null || &quot;&quot;" style="rhombus;whiteSpace=wrap;html=1;" parent="1" vertex="1">
          <mxGeometry x="-399" y="2590" width="273" height="50" as="geometry" />
        </mxCell>
        <mxCell id="r2GIe1Zh89TINreVmSlf-10" style="edgeStyle=orthogonalEdgeStyle;rounded=0;orthogonalLoop=1;jettySize=auto;html=1;exitX=0;exitY=0.5;exitDx=0;exitDy=0;entryX=0;entryY=0.75;entryDx=0;entryDy=0;" parent="1" source="twTSxkOko8yl1DZ957Ty-53" target="twTSxkOko8yl1DZ957Ty-60" edge="1">
          <mxGeometry relative="1" as="geometry" />
        </mxCell>
        <mxCell id="twTSxkOko8yl1DZ957Ty-53" value="introProcessor.OnServerLoginFailed()&lt;br&gt;: introView.Hide()&lt;br&gt;: characterSettingView.Show()" style="rounded=0;whiteSpace=wrap;html=1;" parent="1" vertex="1">
          <mxGeometry x="-382.5" y="2680" width="240" height="60" as="geometry" />
        </mxCell>
        <mxCell id="twTSxkOko8yl1DZ957Ty-59" value="1. MetaBucket App을 통해 실행됨&lt;br style=&quot;border-color: var(--border-color);&quot;&gt;&lt;font style=&quot;border-color: var(--border-color);&quot; color=&quot;#3333ff&quot;&gt;1.1. 계정 정보 없음 (서버)&lt;/font&gt;&lt;br style=&quot;border-color: var(--border-color);&quot;&gt;2. MetaCore App을 바로 실행함" style="shape=note;whiteSpace=wrap;html=1;backgroundOutline=1;darkOpacity=0.05;fillColor=#fff2cc;strokeColor=#d6b656;" parent="1" vertex="1">
          <mxGeometry x="160" y="1800" width="250" height="60" as="geometry" />
        </mxCell>
        <mxCell id="twTSxkOko8yl1DZ957Ty-60" value="new IntroProcessorForFirstUser()" style="swimlane;whiteSpace=wrap;html=1;" parent="1" vertex="1">
          <mxGeometry x="-420" y="1880" width="310" height="185" as="geometry" />
        </mxCell>
        <mxCell id="twTSxkOko8yl1DZ957Ty-61" value="characterSettingView.Init()&lt;br&gt;: 캐릭터 설정, 이름 입력 대기&lt;br&gt;: siginInProcessor.RequestRegist()" style="rounded=0;whiteSpace=wrap;html=1;" parent="twTSxkOko8yl1DZ957Ty-60" vertex="1">
          <mxGeometry x="10" y="35" width="290" height="60" as="geometry" />
        </mxCell>
        <mxCell id="twTSxkOko8yl1DZ957Ty-62" value="MetaBucket or Social Login Button click 대기&lt;br&gt;: signInProcessor.SignIn(selected platform)" style="rounded=0;whiteSpace=wrap;html=1;" parent="twTSxkOko8yl1DZ957Ty-60" vertex="1">
          <mxGeometry x="10" y="105" width="290" height="60" as="geometry" />
        </mxCell>
        <mxCell id="twTSxkOko8yl1DZ957Ty-65" value="로그인 완료&lt;br&gt;GameCore.createIntroProcessor&lt;br&gt;: introProcessor.OnCompleted.Subscribe" style="rounded=0;whiteSpace=wrap;html=1;" parent="1" vertex="1">
          <mxGeometry x="-96.26" y="2930" width="221.25" height="60" as="geometry" />
        </mxCell>
        <mxCell id="twTSxkOko8yl1DZ957Ty-72" style="edgeStyle=orthogonalEdgeStyle;rounded=0;orthogonalLoop=1;jettySize=auto;html=1;exitX=0.5;exitY=1;exitDx=0;exitDy=0;entryX=0.5;entryY=0;entryDx=0;entryDy=0;" parent="1" source="twTSxkOko8yl1DZ957Ty-69" target="twTSxkOko8yl1DZ957Ty-71" edge="1">
          <mxGeometry relative="1" as="geometry" />
        </mxCell>
        <mxCell id="twTSxkOko8yl1DZ957Ty-69" value="WebHttp&lt;br&gt;.ResponseRegist" style="rounded=0;whiteSpace=wrap;html=1;" parent="1" vertex="1">
          <mxGeometry x="-610" y="1985" width="120" height="60" as="geometry" />
        </mxCell>
        <mxCell id="twTSxkOko8yl1DZ957Ty-70" style="edgeStyle=orthogonalEdgeStyle;rounded=0;orthogonalLoop=1;jettySize=auto;html=1;exitX=0;exitY=0.5;exitDx=0;exitDy=0;entryX=0.5;entryY=0;entryDx=0;entryDy=0;" parent="1" source="twTSxkOko8yl1DZ957Ty-61" target="twTSxkOko8yl1DZ957Ty-69" edge="1">
          <mxGeometry relative="1" as="geometry" />
        </mxCell>
        <mxCell id="twTSxkOko8yl1DZ957Ty-80" style="edgeStyle=orthogonalEdgeStyle;rounded=0;orthogonalLoop=1;jettySize=auto;html=1;exitX=0.5;exitY=1;exitDx=0;exitDy=0;entryX=0;entryY=0.5;entryDx=0;entryDy=0;" parent="1" source="twTSxkOko8yl1DZ957Ty-71" target="twTSxkOko8yl1DZ957Ty-26" edge="1">
          <mxGeometry relative="1" as="geometry" />
        </mxCell>
        <mxCell id="twTSxkOko8yl1DZ957Ty-71" value="GameCore&lt;br&gt;.OnRegistered&lt;br&gt;: account 저장" style="rounded=0;whiteSpace=wrap;html=1;" parent="1" vertex="1">
          <mxGeometry x="-610" y="2110" width="120" height="60" as="geometry" />
        </mxCell>
        <mxCell id="twTSxkOko8yl1DZ957Ty-82" style="edgeStyle=orthogonalEdgeStyle;rounded=0;orthogonalLoop=1;jettySize=auto;html=1;exitX=0.5;exitY=1;exitDx=0;exitDy=0;entryX=0.5;entryY=0;entryDx=0;entryDy=0;" parent="1" source="twTSxkOko8yl1DZ957Ty-62" target="twTSxkOko8yl1DZ957Ty-19" edge="1">
          <mxGeometry relative="1" as="geometry" />
        </mxCell>
        <mxCell id="twTSxkOko8yl1DZ957Ty-86" style="edgeStyle=orthogonalEdgeStyle;rounded=0;orthogonalLoop=1;jettySize=auto;html=1;exitX=0.5;exitY=1;exitDx=0;exitDy=0;entryX=0.5;entryY=0;entryDx=0;entryDy=0;" parent="1" source="twTSxkOko8yl1DZ957Ty-65" target="twTSxkOko8yl1DZ957Ty-85" edge="1">
          <mxGeometry relative="1" as="geometry">
            <mxPoint x="22.5" y="3370" as="sourcePoint" />
          </mxGeometry>
        </mxCell>
        <mxCell id="C1g7vWia5_6TVQ5yg0nz-1" style="edgeStyle=orthogonalEdgeStyle;rounded=0;orthogonalLoop=1;jettySize=auto;html=1;exitX=0.5;exitY=1;exitDx=0;exitDy=0;entryX=0.5;entryY=0;entryDx=0;entryDy=0;" edge="1" parent="1" source="twTSxkOko8yl1DZ957Ty-85" target="wInohihnlfeqzAoBdYdE-7">
          <mxGeometry relative="1" as="geometry" />
        </mxCell>
        <mxCell id="twTSxkOko8yl1DZ957Ty-85" value="GameCore.OnVerified&lt;br&gt;&lt;br&gt;계속 진행" style="rounded=0;whiteSpace=wrap;html=1;" parent="1" vertex="1">
          <mxGeometry x="-77.14" y="3030" width="183" height="60" as="geometry" />
        </mxCell>
        <mxCell id="r2GIe1Zh89TINreVmSlf-3" style="edgeStyle=orthogonalEdgeStyle;rounded=0;orthogonalLoop=1;jettySize=auto;html=1;exitX=0.5;exitY=1;exitDx=0;exitDy=0;entryX=0.5;entryY=0;entryDx=0;entryDy=0;" parent="1" source="r2GIe1Zh89TINreVmSlf-1" target="XIRvb3u4yRxEIeP394ts-52" edge="1">
          <mxGeometry relative="1" as="geometry" />
        </mxCell>
        <mxCell id="r2GIe1Zh89TINreVmSlf-1" value="introView.ShowHideSigninButtons(false)" style="rounded=0;whiteSpace=wrap;html=1;" parent="1" vertex="1">
          <mxGeometry x="-55" y="2060" width="230" height="40" as="geometry" />
        </mxCell>
        <mxCell id="r2GIe1Zh89TINreVmSlf-6" value="introView.ShowHideSigninButtons(false)" style="rounded=0;whiteSpace=wrap;html=1;" parent="1" vertex="1">
          <mxGeometry x="179.13" y="2120" width="230" height="40" as="geometry" />
        </mxCell>
        <mxCell id="K_UThX5w2FyFl1FN_E_i-6" style="edgeStyle=orthogonalEdgeStyle;rounded=0;orthogonalLoop=1;jettySize=auto;html=1;exitX=0.5;exitY=1;exitDx=0;exitDy=0;entryX=0.5;entryY=0;entryDx=0;entryDy=0;" parent="1" source="K_UThX5w2FyFl1FN_E_i-1" target="twTSxkOko8yl1DZ957Ty-31" edge="1">
          <mxGeometry relative="1" as="geometry">
            <mxPoint x="14.38000000000011" y="2730" as="targetPoint" />
          </mxGeometry>
        </mxCell>
        <mxCell id="K_UThX5w2FyFl1FN_E_i-9" style="edgeStyle=orthogonalEdgeStyle;rounded=0;orthogonalLoop=1;jettySize=auto;html=1;exitX=1;exitY=0.5;exitDx=0;exitDy=0;entryX=0;entryY=0.5;entryDx=0;entryDy=0;" parent="1" source="K_UThX5w2FyFl1FN_E_i-1" target="K_UThX5w2FyFl1FN_E_i-7" edge="1">
          <mxGeometry relative="1" as="geometry" />
        </mxCell>
        <mxCell id="K_UThX5w2FyFl1FN_E_i-1" value="res.timestampMills == 0" style="rhombus;whiteSpace=wrap;html=1;" parent="1" vertex="1">
          <mxGeometry x="-85.89" y="2560" width="200.51" height="40" as="geometry" />
        </mxCell>
        <mxCell id="K_UThX5w2FyFl1FN_E_i-10" style="edgeStyle=orthogonalEdgeStyle;rounded=0;orthogonalLoop=1;jettySize=auto;html=1;exitX=0.5;exitY=1;exitDx=0;exitDy=0;entryX=0.5;entryY=0;entryDx=0;entryDy=0;" parent="1" source="K_UThX5w2FyFl1FN_E_i-7" target="K_UThX5w2FyFl1FN_E_i-8" edge="1">
          <mxGeometry relative="1" as="geometry" />
        </mxCell>
        <mxCell id="K_UThX5w2FyFl1FN_E_i-7" value="GameCore&lt;br&gt;.showCancelDeleteAccountAlerUI" style="rounded=0;whiteSpace=wrap;html=1;" parent="1" vertex="1">
          <mxGeometry x="250" y="2550" width="200" height="60" as="geometry" />
        </mxCell>
        <mxCell id="K_UThX5w2FyFl1FN_E_i-12" style="edgeStyle=orthogonalEdgeStyle;rounded=0;orthogonalLoop=1;jettySize=auto;html=1;exitX=1;exitY=0.5;exitDx=0;exitDy=0;entryX=0;entryY=0.5;entryDx=0;entryDy=0;" parent="1" source="K_UThX5w2FyFl1FN_E_i-8" target="K_UThX5w2FyFl1FN_E_i-11" edge="1">
          <mxGeometry relative="1" as="geometry" />
        </mxCell>
        <mxCell id="K_UThX5w2FyFl1FN_E_i-15" style="edgeStyle=orthogonalEdgeStyle;rounded=0;orthogonalLoop=1;jettySize=auto;html=1;exitX=0.5;exitY=1;exitDx=0;exitDy=0;entryX=0.5;entryY=0;entryDx=0;entryDy=0;" parent="1" source="K_UThX5w2FyFl1FN_E_i-8" target="K_UThX5w2FyFl1FN_E_i-14" edge="1">
          <mxGeometry relative="1" as="geometry" />
        </mxCell>
        <mxCell id="K_UThX5w2FyFl1FN_E_i-8" value="Cancel Delete?" style="rhombus;whiteSpace=wrap;html=1;" parent="1" vertex="1">
          <mxGeometry x="250" y="2645" width="200" height="40" as="geometry" />
        </mxCell>
        <mxCell id="K_UThX5w2FyFl1FN_E_i-13" style="edgeStyle=orthogonalEdgeStyle;rounded=0;orthogonalLoop=1;jettySize=auto;html=1;exitX=0.5;exitY=0;exitDx=0;exitDy=0;entryX=0.75;entryY=0;entryDx=0;entryDy=0;" parent="1" source="K_UThX5w2FyFl1FN_E_i-11" target="twTSxkOko8yl1DZ957Ty-44" edge="1">
          <mxGeometry relative="1" as="geometry" />
        </mxCell>
        <mxCell id="K_UThX5w2FyFl1FN_E_i-11" value="GameCore&lt;br&gt;.cancelServerLogin()" style="rounded=0;whiteSpace=wrap;html=1;" parent="1" vertex="1">
          <mxGeometry x="530" y="2635" width="120" height="60" as="geometry" />
        </mxCell>
        <mxCell id="K_UThX5w2FyFl1FN_E_i-16" style="edgeStyle=orthogonalEdgeStyle;rounded=0;orthogonalLoop=1;jettySize=auto;html=1;exitX=0;exitY=0.5;exitDx=0;exitDy=0;entryX=1;entryY=0.5;entryDx=0;entryDy=0;" parent="1" source="K_UThX5w2FyFl1FN_E_i-14" target="twTSxkOko8yl1DZ957Ty-31" edge="1">
          <mxGeometry relative="1" as="geometry">
            <mxPoint x="74.38000000000011" y="2750" as="targetPoint" />
          </mxGeometry>
        </mxCell>
        <mxCell id="K_UThX5w2FyFl1FN_E_i-14" value="GameCore&lt;br&gt;.requestCancelDeleteAccount()" style="rounded=0;whiteSpace=wrap;html=1;" parent="1" vertex="1">
          <mxGeometry x="255" y="2720" width="190" height="60" as="geometry" />
        </mxCell>
        <mxCell id="wInohihnlfeqzAoBdYdE-4" value="GameCore.OnDisconnected&lt;br&gt;&lt;br&gt;Zone에 접속 중이면 처리 종료&lt;br&gt;&lt;br&gt;suspend된 시간이 5분 이상이면 재시작 팝업 노출 후 처리 종료&lt;br&gt;&lt;br&gt;중복 접속이면 SignOut 후 처리 종료&lt;br&gt;&lt;br&gt;CMS를 통한 강제 종료 상태면 처리 종료&lt;br&gt;&lt;br&gt;Intro면 재시작 팝업 노출 후 처리 종료&lt;br&gt;&lt;br&gt;미니게임이 아니거나, 광고 보고 온 뒤. 재접속이 진행되지 않았으면 재접속 호출 후 처리 종료.&lt;br&gt;&lt;br&gt;이도저도 다 아니면 재시작 팝업 노출" style="rounded=0;whiteSpace=wrap;html=1;" parent="1" vertex="1">
          <mxGeometry x="280" y="2920" width="200" height="285" as="geometry" />
        </mxCell>
        <mxCell id="wInohihnlfeqzAoBdYdE-7" value="Scene 이동시&lt;br&gt;World scene이면 ZoneServer 접속&lt;div&gt;Chatting Server 접속 안 되어 있으면 접속&lt;/div&gt;&lt;div&gt;&lt;br&gt;World scene이 아니고 ZoneServer 접속 중이면 ZoneServer 연결 종료&lt;/div&gt;&lt;div&gt;World scene이 아니고 Chatting Server 접속 중이면 ChattingServer 연결 종료&lt;br&gt;&lt;br&gt;Mini Game scene이면 BattleServer 접속&lt;/div&gt;" style="rounded=0;whiteSpace=wrap;html=1;" parent="1" vertex="1">
          <mxGeometry x="-185.63" y="3130" width="400" height="120" as="geometry" />
        </mxCell>
      </root>
    </mxGraphModel>
  </diagram>
  <diagram name="Login Flow (~2023.11.05)" id="vBpom5vJJS8kNWb9QU94">
    <mxGraphModel dx="1941" dy="999" grid="1" gridSize="10" guides="1" tooltips="1" connect="1" arrows="1" fold="1" page="1" pageScale="1" pageWidth="827" pageHeight="1169" math="0" shadow="0">
      <root>
        <mxCell id="9fW68ri5f_B1G1GQeWF7-0" />
        <mxCell id="9fW68ri5f_B1G1GQeWF7-1" parent="9fW68ri5f_B1G1GQeWF7-0" />
        <mxCell id="9fW68ri5f_B1G1GQeWF7-2" style="edgeStyle=orthogonalEdgeStyle;rounded=0;orthogonalLoop=1;jettySize=auto;html=1;exitX=0.5;exitY=1;exitDx=0;exitDy=0;entryX=0.5;entryY=0;entryDx=0;entryDy=0;" parent="9fW68ri5f_B1G1GQeWF7-1" source="9fW68ri5f_B1G1GQeWF7-3" target="9fW68ri5f_B1G1GQeWF7-5" edge="1">
          <mxGeometry relative="1" as="geometry" />
        </mxCell>
        <mxCell id="9fW68ri5f_B1G1GQeWF7-3" value="GameCore.Awake()" style="rounded=0;whiteSpace=wrap;html=1;fillColor=#fff2cc;strokeColor=#d6b656;" parent="9fW68ri5f_B1G1GQeWF7-1" vertex="1">
          <mxGeometry width="120" height="60" as="geometry" />
        </mxCell>
        <mxCell id="9fW68ri5f_B1G1GQeWF7-4" style="edgeStyle=orthogonalEdgeStyle;rounded=0;orthogonalLoop=1;jettySize=auto;html=1;exitX=0.5;exitY=1;exitDx=0;exitDy=0;entryX=0.5;entryY=0;entryDx=0;entryDy=0;" parent="9fW68ri5f_B1G1GQeWF7-1" source="9fW68ri5f_B1G1GQeWF7-5" target="9fW68ri5f_B1G1GQeWF7-7" edge="1">
          <mxGeometry relative="1" as="geometry" />
        </mxCell>
        <mxCell id="9fW68ri5f_B1G1GQeWF7-5" value="GameCore.Start()" style="rounded=0;whiteSpace=wrap;html=1;" parent="9fW68ri5f_B1G1GQeWF7-1" vertex="1">
          <mxGeometry y="80" width="120" height="60" as="geometry" />
        </mxCell>
        <mxCell id="9fW68ri5f_B1G1GQeWF7-6" style="edgeStyle=orthogonalEdgeStyle;rounded=0;orthogonalLoop=1;jettySize=auto;html=1;exitX=0.5;exitY=1;exitDx=0;exitDy=0;entryX=0.5;entryY=0;entryDx=0;entryDy=0;" parent="9fW68ri5f_B1G1GQeWF7-1" source="9fW68ri5f_B1G1GQeWF7-7" target="9fW68ri5f_B1G1GQeWF7-9" edge="1">
          <mxGeometry relative="1" as="geometry" />
        </mxCell>
        <mxCell id="9fW68ri5f_B1G1GQeWF7-7" value="GameCore&lt;br&gt;.getPlayerData()&lt;br&gt;&lt;i&gt;* ReadPlayerData()&lt;/i&gt;" style="rounded=0;whiteSpace=wrap;html=1;" parent="9fW68ri5f_B1G1GQeWF7-1" vertex="1">
          <mxGeometry y="160" width="120" height="60" as="geometry" />
        </mxCell>
        <mxCell id="9fW68ri5f_B1G1GQeWF7-8" style="edgeStyle=orthogonalEdgeStyle;rounded=0;orthogonalLoop=1;jettySize=auto;html=1;exitX=0.5;exitY=1;exitDx=0;exitDy=0;entryX=0.5;entryY=0;entryDx=0;entryDy=0;" parent="9fW68ri5f_B1G1GQeWF7-1" source="9fW68ri5f_B1G1GQeWF7-9" target="9fW68ri5f_B1G1GQeWF7-16" edge="1">
          <mxGeometry relative="1" as="geometry" />
        </mxCell>
        <mxCell id="9fW68ri5f_B1G1GQeWF7-9" value="GameCore&lt;br&gt;.ReadPlayerData()" style="rounded=0;whiteSpace=wrap;html=1;" parent="9fW68ri5f_B1G1GQeWF7-1" vertex="1">
          <mxGeometry y="240" width="120" height="60" as="geometry" />
        </mxCell>
        <mxCell id="9fW68ri5f_B1G1GQeWF7-10" style="edgeStyle=orthogonalEdgeStyle;rounded=0;orthogonalLoop=1;jettySize=auto;html=1;exitX=1;exitY=0.5;exitDx=0;exitDy=0;entryX=0;entryY=0.5;entryDx=0;entryDy=0;" parent="9fW68ri5f_B1G1GQeWF7-1" source="9fW68ri5f_B1G1GQeWF7-11" target="9fW68ri5f_B1G1GQeWF7-9" edge="1">
          <mxGeometry relative="1" as="geometry" />
        </mxCell>
        <mxCell id="9fW68ri5f_B1G1GQeWF7-11" value="PlayerData {&lt;br&gt;string Account&lt;br&gt;int FinalScene&lt;br&gt;int TutorialStep&lt;br&gt;string Language&lt;br&gt;string SignedPlatform&lt;br&gt;MetaBucketAccountInfo MbaInfo }" style="rounded=0;whiteSpace=wrap;html=1;" parent="9fW68ri5f_B1G1GQeWF7-1" vertex="1">
          <mxGeometry x="-250" y="210" width="210" height="120" as="geometry" />
        </mxCell>
        <mxCell id="9fW68ri5f_B1G1GQeWF7-12" style="edgeStyle=orthogonalEdgeStyle;rounded=0;orthogonalLoop=1;jettySize=auto;html=1;exitX=1;exitY=0.5;exitDx=0;exitDy=0;" parent="9fW68ri5f_B1G1GQeWF7-1" source="9fW68ri5f_B1G1GQeWF7-13" target="9fW68ri5f_B1G1GQeWF7-11" edge="1">
          <mxGeometry relative="1" as="geometry" />
        </mxCell>
        <mxCell id="9fW68ri5f_B1G1GQeWF7-13" value="MetaBucketAccountInfo {&lt;br&gt;string Uid&lt;br&gt;string HashId&lt;br&gt;int OptId }" style="rounded=0;whiteSpace=wrap;html=1;" parent="9fW68ri5f_B1G1GQeWF7-1" vertex="1">
          <mxGeometry x="-440" y="230" width="160" height="80" as="geometry" />
        </mxCell>
        <mxCell id="9fW68ri5f_B1G1GQeWF7-14" style="edgeStyle=orthogonalEdgeStyle;rounded=0;orthogonalLoop=1;jettySize=auto;html=1;exitX=0.5;exitY=1;exitDx=0;exitDy=0;entryX=0.5;entryY=0;entryDx=0;entryDy=0;" parent="9fW68ri5f_B1G1GQeWF7-1" source="9fW68ri5f_B1G1GQeWF7-16" target="9fW68ri5f_B1G1GQeWF7-18" edge="1">
          <mxGeometry relative="1" as="geometry" />
        </mxCell>
        <mxCell id="9fW68ri5f_B1G1GQeWF7-15" style="edgeStyle=orthogonalEdgeStyle;rounded=0;orthogonalLoop=1;jettySize=auto;html=1;exitX=1;exitY=0.5;exitDx=0;exitDy=0;entryX=1;entryY=0.5;entryDx=0;entryDy=0;" parent="9fW68ri5f_B1G1GQeWF7-1" source="9fW68ri5f_B1G1GQeWF7-16" target="9fW68ri5f_B1G1GQeWF7-20" edge="1">
          <mxGeometry relative="1" as="geometry" />
        </mxCell>
        <mxCell id="9fW68ri5f_B1G1GQeWF7-16" value="PlayerData == null" style="rhombus;whiteSpace=wrap;html=1;" parent="9fW68ri5f_B1G1GQeWF7-1" vertex="1">
          <mxGeometry x="-5" y="340" width="130" height="60" as="geometry" />
        </mxCell>
        <mxCell id="9fW68ri5f_B1G1GQeWF7-17" style="edgeStyle=orthogonalEdgeStyle;rounded=0;orthogonalLoop=1;jettySize=auto;html=1;exitX=0.5;exitY=1;exitDx=0;exitDy=0;entryX=0.5;entryY=0;entryDx=0;entryDy=0;" parent="9fW68ri5f_B1G1GQeWF7-1" source="9fW68ri5f_B1G1GQeWF7-18" target="9fW68ri5f_B1G1GQeWF7-20" edge="1">
          <mxGeometry relative="1" as="geometry" />
        </mxCell>
        <mxCell id="9fW68ri5f_B1G1GQeWF7-18" value="Save Player Data&lt;br&gt;SiginedPlatform = 0" style="rounded=0;whiteSpace=wrap;html=1;" parent="9fW68ri5f_B1G1GQeWF7-1" vertex="1">
          <mxGeometry y="430" width="120" height="60" as="geometry" />
        </mxCell>
        <mxCell id="9fW68ri5f_B1G1GQeWF7-19" style="edgeStyle=orthogonalEdgeStyle;rounded=0;orthogonalLoop=1;jettySize=auto;html=1;exitX=0.5;exitY=1;exitDx=0;exitDy=0;" parent="9fW68ri5f_B1G1GQeWF7-1" source="9fW68ri5f_B1G1GQeWF7-20" target="9fW68ri5f_B1G1GQeWF7-22" edge="1">
          <mxGeometry relative="1" as="geometry" />
        </mxCell>
        <mxCell id="9fW68ri5f_B1G1GQeWF7-20" value="PlayerData.MbaInfo = DeepLinkObj.Instance.MbaInfo&lt;br&gt;Overwrite" style="rounded=0;whiteSpace=wrap;html=1;fillColor=#dae8fc;strokeColor=#6c8ebf;" parent="9fW68ri5f_B1G1GQeWF7-1" vertex="1">
          <mxGeometry x="-30" y="520" width="180" height="60" as="geometry" />
        </mxCell>
        <mxCell id="9fW68ri5f_B1G1GQeWF7-21" style="edgeStyle=orthogonalEdgeStyle;rounded=0;orthogonalLoop=1;jettySize=auto;html=1;exitX=0.5;exitY=1;exitDx=0;exitDy=0;entryX=0.5;entryY=0;entryDx=0;entryDy=0;" parent="9fW68ri5f_B1G1GQeWF7-1" source="9fW68ri5f_B1G1GQeWF7-22" target="9fW68ri5f_B1G1GQeWF7-24" edge="1">
          <mxGeometry relative="1" as="geometry" />
        </mxCell>
        <mxCell id="9fW68ri5f_B1G1GQeWF7-22" value="Initializer.Start()" style="rounded=0;whiteSpace=wrap;html=1;" parent="9fW68ri5f_B1G1GQeWF7-1" vertex="1">
          <mxGeometry y="620" width="120" height="60" as="geometry" />
        </mxCell>
        <mxCell id="9fW68ri5f_B1G1GQeWF7-23" style="edgeStyle=orthogonalEdgeStyle;rounded=0;orthogonalLoop=1;jettySize=auto;html=1;exitX=0.5;exitY=1;exitDx=0;exitDy=0;entryX=0.5;entryY=0;entryDx=0;entryDy=0;" parent="9fW68ri5f_B1G1GQeWF7-1" source="9fW68ri5f_B1G1GQeWF7-24" target="9fW68ri5f_B1G1GQeWF7-26" edge="1">
          <mxGeometry relative="1" as="geometry" />
        </mxCell>
        <mxCell id="9fW68ri5f_B1G1GQeWF7-24" value="LoadManager" style="rounded=0;whiteSpace=wrap;html=1;" parent="9fW68ri5f_B1G1GQeWF7-1" vertex="1">
          <mxGeometry y="720" width="120" height="60" as="geometry" />
        </mxCell>
        <mxCell id="9fW68ri5f_B1G1GQeWF7-25" style="edgeStyle=orthogonalEdgeStyle;rounded=0;orthogonalLoop=1;jettySize=auto;html=1;exitX=0.5;exitY=1;exitDx=0;exitDy=0;entryX=0.5;entryY=0;entryDx=0;entryDy=0;" parent="9fW68ri5f_B1G1GQeWF7-1" source="9fW68ri5f_B1G1GQeWF7-26" target="9fW68ri5f_B1G1GQeWF7-28" edge="1">
          <mxGeometry relative="1" as="geometry" />
        </mxCell>
        <mxCell id="9fW68ri5f_B1G1GQeWF7-26" value="GameCore&lt;br&gt;.OnCompletedInit()&lt;br&gt;: new Spawner()&lt;br&gt;: webHttp.Init()&lt;br&gt;: webTcp.Init()&lt;br&gt;: .initUI()" style="rounded=0;whiteSpace=wrap;html=1;" parent="9fW68ri5f_B1G1GQeWF7-1" vertex="1">
          <mxGeometry y="820" width="120" height="120" as="geometry" />
        </mxCell>
        <mxCell id="9fW68ri5f_B1G1GQeWF7-27" style="edgeStyle=orthogonalEdgeStyle;rounded=0;orthogonalLoop=1;jettySize=auto;html=1;exitX=0.5;exitY=1;exitDx=0;exitDy=0;entryX=0.5;entryY=0;entryDx=0;entryDy=0;" parent="9fW68ri5f_B1G1GQeWF7-1" source="9fW68ri5f_B1G1GQeWF7-28" target="9fW68ri5f_B1G1GQeWF7-32" edge="1">
          <mxGeometry relative="1" as="geometry" />
        </mxCell>
        <mxCell id="9fW68ri5f_B1G1GQeWF7-28" value="GameCore&lt;br&gt;.requestServerCheck()" style="rounded=0;whiteSpace=wrap;html=1;" parent="9fW68ri5f_B1G1GQeWF7-1" vertex="1">
          <mxGeometry x="-5" y="980" width="130" height="60" as="geometry" />
        </mxCell>
        <mxCell id="9fW68ri5f_B1G1GQeWF7-29" style="edgeStyle=orthogonalEdgeStyle;rounded=0;orthogonalLoop=1;jettySize=auto;html=1;exitX=1;exitY=0.5;exitDx=0;exitDy=0;entryX=0;entryY=0.5;entryDx=0;entryDy=0;" parent="9fW68ri5f_B1G1GQeWF7-1" source="9fW68ri5f_B1G1GQeWF7-30" target="9fW68ri5f_B1G1GQeWF7-28" edge="1">
          <mxGeometry relative="1" as="geometry" />
        </mxCell>
        <mxCell id="9fW68ri5f_B1G1GQeWF7-30" value="AppConstants.Version&lt;br&gt;10104" style="rounded=0;whiteSpace=wrap;html=1;fillColor=#d5e8d4;strokeColor=#82b366;" parent="9fW68ri5f_B1G1GQeWF7-1" vertex="1">
          <mxGeometry x="-200" y="980" width="160" height="60" as="geometry" />
        </mxCell>
        <mxCell id="9fW68ri5f_B1G1GQeWF7-31" style="edgeStyle=orthogonalEdgeStyle;rounded=0;orthogonalLoop=1;jettySize=auto;html=1;exitX=0.5;exitY=1;exitDx=0;exitDy=0;entryX=0.5;entryY=0;entryDx=0;entryDy=0;" parent="9fW68ri5f_B1G1GQeWF7-1" source="9fW68ri5f_B1G1GQeWF7-32" target="9fW68ri5f_B1G1GQeWF7-35" edge="1">
          <mxGeometry relative="1" as="geometry" />
        </mxCell>
        <mxCell id="9fW68ri5f_B1G1GQeWF7-32" value="WebHttp&lt;br&gt;.RequestServerCheck()" style="rounded=0;whiteSpace=wrap;html=1;" parent="9fW68ri5f_B1G1GQeWF7-1" vertex="1">
          <mxGeometry x="-15" y="1080" width="150" height="60" as="geometry" />
        </mxCell>
        <mxCell id="9fW68ri5f_B1G1GQeWF7-33" style="edgeStyle=orthogonalEdgeStyle;rounded=0;orthogonalLoop=1;jettySize=auto;html=1;exitX=0.5;exitY=1;exitDx=0;exitDy=0;entryX=0.5;entryY=0;entryDx=0;entryDy=0;" parent="9fW68ri5f_B1G1GQeWF7-1" source="9fW68ri5f_B1G1GQeWF7-35" target="9fW68ri5f_B1G1GQeWF7-37" edge="1">
          <mxGeometry relative="1" as="geometry" />
        </mxCell>
        <mxCell id="9fW68ri5f_B1G1GQeWF7-34" style="edgeStyle=orthogonalEdgeStyle;rounded=0;orthogonalLoop=1;jettySize=auto;html=1;exitX=0;exitY=0.5;exitDx=0;exitDy=0;entryX=1;entryY=0.5;entryDx=0;entryDy=0;" parent="9fW68ri5f_B1G1GQeWF7-1" source="9fW68ri5f_B1G1GQeWF7-35" target="9fW68ri5f_B1G1GQeWF7-38" edge="1">
          <mxGeometry relative="1" as="geometry" />
        </mxCell>
        <mxCell id="9fW68ri5f_B1G1GQeWF7-35" value="WebHttp&lt;br&gt;.ResponseServerCheck()" style="rhombus;whiteSpace=wrap;html=1;" parent="9fW68ri5f_B1G1GQeWF7-1" vertex="1">
          <mxGeometry x="-52.5" y="1180" width="225" height="80" as="geometry" />
        </mxCell>
        <mxCell id="9fW68ri5f_B1G1GQeWF7-36" style="edgeStyle=orthogonalEdgeStyle;rounded=0;orthogonalLoop=1;jettySize=auto;html=1;exitX=0.5;exitY=1;exitDx=0;exitDy=0;entryX=0.5;entryY=0;entryDx=0;entryDy=0;" parent="9fW68ri5f_B1G1GQeWF7-1" source="9fW68ri5f_B1G1GQeWF7-37" target="9fW68ri5f_B1G1GQeWF7-40" edge="1">
          <mxGeometry relative="1" as="geometry" />
        </mxCell>
        <mxCell id="9fW68ri5f_B1G1GQeWF7-37" value="GameCore&lt;br&gt;.OnServerChecked()" style="rounded=0;whiteSpace=wrap;html=1;" parent="9fW68ri5f_B1G1GQeWF7-1" vertex="1">
          <mxGeometry y="1300" width="120" height="60" as="geometry" />
        </mxCell>
        <mxCell id="9fW68ri5f_B1G1GQeWF7-38" value="Update or Maintenance" style="rounded=0;whiteSpace=wrap;html=1;" parent="9fW68ri5f_B1G1GQeWF7-1" vertex="1">
          <mxGeometry x="-200" y="1190" width="120" height="60" as="geometry" />
        </mxCell>
        <mxCell id="9fW68ri5f_B1G1GQeWF7-39" style="edgeStyle=orthogonalEdgeStyle;rounded=0;orthogonalLoop=1;jettySize=auto;html=1;exitX=0.5;exitY=1;exitDx=0;exitDy=0;entryX=0.5;entryY=0;entryDx=0;entryDy=0;" parent="9fW68ri5f_B1G1GQeWF7-1" source="9fW68ri5f_B1G1GQeWF7-40" target="9fW68ri5f_B1G1GQeWF7-42" edge="1">
          <mxGeometry relative="1" as="geometry" />
        </mxCell>
        <mxCell id="9fW68ri5f_B1G1GQeWF7-40" value="GameCore&lt;br&gt;.requestServerInfo()&lt;br&gt;serverType = 2 (Battle)" style="rounded=0;whiteSpace=wrap;html=1;" parent="9fW68ri5f_B1G1GQeWF7-1" vertex="1">
          <mxGeometry y="1400" width="120" height="60" as="geometry" />
        </mxCell>
        <mxCell id="9fW68ri5f_B1G1GQeWF7-41" style="edgeStyle=orthogonalEdgeStyle;rounded=0;orthogonalLoop=1;jettySize=auto;html=1;exitX=0.5;exitY=1;exitDx=0;exitDy=0;entryX=0.5;entryY=0;entryDx=0;entryDy=0;" parent="9fW68ri5f_B1G1GQeWF7-1" source="9fW68ri5f_B1G1GQeWF7-42" target="9fW68ri5f_B1G1GQeWF7-45" edge="1">
          <mxGeometry relative="1" as="geometry" />
        </mxCell>
        <mxCell id="9fW68ri5f_B1G1GQeWF7-42" value="GameCore&lt;br&gt;.ResponseServerInfo()" style="rounded=0;whiteSpace=wrap;html=1;" parent="9fW68ri5f_B1G1GQeWF7-1" vertex="1">
          <mxGeometry x="-5" y="1500" width="130" height="60" as="geometry" />
        </mxCell>
        <mxCell id="9fW68ri5f_B1G1GQeWF7-43" style="edgeStyle=orthogonalEdgeStyle;rounded=0;orthogonalLoop=1;jettySize=auto;html=1;exitX=0;exitY=0.5;exitDx=0;exitDy=0;entryX=1;entryY=0.5;entryDx=0;entryDy=0;" parent="9fW68ri5f_B1G1GQeWF7-1" source="9fW68ri5f_B1G1GQeWF7-45" target="9fW68ri5f_B1G1GQeWF7-46" edge="1">
          <mxGeometry relative="1" as="geometry" />
        </mxCell>
        <mxCell id="9fW68ri5f_B1G1GQeWF7-44" style="edgeStyle=orthogonalEdgeStyle;rounded=0;orthogonalLoop=1;jettySize=auto;html=1;exitX=0.5;exitY=1;exitDx=0;exitDy=0;entryX=0.5;entryY=0;entryDx=0;entryDy=0;" parent="9fW68ri5f_B1G1GQeWF7-1" source="9fW68ri5f_B1G1GQeWF7-45" target="9fW68ri5f_B1G1GQeWF7-61" edge="1">
          <mxGeometry relative="1" as="geometry" />
        </mxCell>
        <mxCell id="9fW68ri5f_B1G1GQeWF7-45" value="res.result == 0" style="rhombus;whiteSpace=wrap;html=1;" parent="9fW68ri5f_B1G1GQeWF7-1" vertex="1">
          <mxGeometry x="7.5" y="1590" width="105" height="50" as="geometry" />
        </mxCell>
        <mxCell id="9fW68ri5f_B1G1GQeWF7-46" value="GameCore&lt;br&gt;.OnDisconnected()" style="rounded=0;whiteSpace=wrap;html=1;" parent="9fW68ri5f_B1G1GQeWF7-1" vertex="1">
          <mxGeometry x="-145" y="1585" width="120" height="60" as="geometry" />
        </mxCell>
        <mxCell id="9fW68ri5f_B1G1GQeWF7-47" style="edgeStyle=orthogonalEdgeStyle;rounded=0;orthogonalLoop=1;jettySize=auto;html=1;exitX=0.5;exitY=1;exitDx=0;exitDy=0;" parent="9fW68ri5f_B1G1GQeWF7-1" source="9fW68ri5f_B1G1GQeWF7-50" target="9fW68ri5f_B1G1GQeWF7-53" edge="1">
          <mxGeometry relative="1" as="geometry" />
        </mxCell>
        <mxCell id="9fW68ri5f_B1G1GQeWF7-48" style="edgeStyle=orthogonalEdgeStyle;rounded=0;orthogonalLoop=1;jettySize=auto;html=1;exitX=1;exitY=0.5;exitDx=0;exitDy=0;entryX=0;entryY=0.5;entryDx=0;entryDy=0;" parent="9fW68ri5f_B1G1GQeWF7-1" source="9fW68ri5f_B1G1GQeWF7-50" target="9fW68ri5f_B1G1GQeWF7-57" edge="1">
          <mxGeometry relative="1" as="geometry" />
        </mxCell>
        <mxCell id="9fW68ri5f_B1G1GQeWF7-49" style="rounded=0;orthogonalLoop=1;jettySize=auto;html=1;exitX=1;exitY=0;exitDx=0;exitDy=0;entryX=0;entryY=1;entryDx=0;entryDy=0;entryPerimeter=0;dashed=1;dashPattern=1 4;endArrow=none;endFill=0;" parent="9fW68ri5f_B1G1GQeWF7-1" source="9fW68ri5f_B1G1GQeWF7-50" target="9fW68ri5f_B1G1GQeWF7-102" edge="1">
          <mxGeometry relative="1" as="geometry" />
        </mxCell>
        <mxCell id="9fW68ri5f_B1G1GQeWF7-50" value="PlayerData.MbaInfo != null&lt;br&gt;(MetaBucket으로 실행)" style="rhombus;whiteSpace=wrap;html=1;fillColor=#fff2cc;strokeColor=#d6b656;" parent="9fW68ri5f_B1G1GQeWF7-1" vertex="1">
          <mxGeometry x="-40" y="1865" width="200" height="95" as="geometry" />
        </mxCell>
        <mxCell id="9fW68ri5f_B1G1GQeWF7-51" style="edgeStyle=orthogonalEdgeStyle;rounded=0;orthogonalLoop=1;jettySize=auto;html=1;exitX=0.5;exitY=1;exitDx=0;exitDy=0;entryX=0.5;entryY=0;entryDx=0;entryDy=0;" parent="9fW68ri5f_B1G1GQeWF7-1" source="9fW68ri5f_B1G1GQeWF7-53" target="9fW68ri5f_B1G1GQeWF7-55" edge="1">
          <mxGeometry relative="1" as="geometry" />
        </mxCell>
        <mxCell id="9fW68ri5f_B1G1GQeWF7-52" style="edgeStyle=orthogonalEdgeStyle;rounded=0;orthogonalLoop=1;jettySize=auto;html=1;exitX=0;exitY=0.5;exitDx=0;exitDy=0;entryX=1;entryY=0.75;entryDx=0;entryDy=0;" parent="9fW68ri5f_B1G1GQeWF7-1" source="9fW68ri5f_B1G1GQeWF7-53" target="9fW68ri5f_B1G1GQeWF7-103" edge="1">
          <mxGeometry relative="1" as="geometry">
            <mxPoint x="700" y="2011.25" as="targetPoint" />
          </mxGeometry>
        </mxCell>
        <mxCell id="9fW68ri5f_B1G1GQeWF7-53" value="createIntroProcessor(false)" style="rounded=0;whiteSpace=wrap;html=1;" parent="9fW68ri5f_B1G1GQeWF7-1" vertex="1">
          <mxGeometry x="-20" y="2055" width="160" height="40" as="geometry" />
        </mxCell>
        <mxCell id="9fW68ri5f_B1G1GQeWF7-54" style="edgeStyle=orthogonalEdgeStyle;rounded=0;orthogonalLoop=1;jettySize=auto;html=1;exitX=0;exitY=0.5;exitDx=0;exitDy=0;entryX=1;entryY=0.5;entryDx=0;entryDy=0;" parent="9fW68ri5f_B1G1GQeWF7-1" source="9fW68ri5f_B1G1GQeWF7-55" target="9fW68ri5f_B1G1GQeWF7-70" edge="1">
          <mxGeometry relative="1" as="geometry" />
        </mxCell>
        <mxCell id="9fW68ri5f_B1G1GQeWF7-55" value="signInProcessor.SignIn&lt;br&gt;(SignInPlatform.MetaBucket)" style="rounded=0;whiteSpace=wrap;html=1;" parent="9fW68ri5f_B1G1GQeWF7-1" vertex="1">
          <mxGeometry x="-20" y="2120" width="160" height="40" as="geometry" />
        </mxCell>
        <mxCell id="9fW68ri5f_B1G1GQeWF7-56" style="edgeStyle=orthogonalEdgeStyle;rounded=0;orthogonalLoop=1;jettySize=auto;html=1;exitX=0.5;exitY=1;exitDx=0;exitDy=0;entryX=0.5;entryY=0;entryDx=0;entryDy=0;" parent="9fW68ri5f_B1G1GQeWF7-1" source="9fW68ri5f_B1G1GQeWF7-57" target="9fW68ri5f_B1G1GQeWF7-66" edge="1">
          <mxGeometry relative="1" as="geometry" />
        </mxCell>
        <mxCell id="9fW68ri5f_B1G1GQeWF7-57" value="createIntroProcessor&lt;br&gt;(signInProcessor.IsRegistered&lt;br&gt;= .account is not null)" style="rounded=0;whiteSpace=wrap;html=1;" parent="9fW68ri5f_B1G1GQeWF7-1" vertex="1">
          <mxGeometry x="205.01" y="1882.5" width="180" height="60" as="geometry" />
        </mxCell>
        <mxCell id="9fW68ri5f_B1G1GQeWF7-58" style="edgeStyle=orthogonalEdgeStyle;rounded=0;orthogonalLoop=1;jettySize=auto;html=1;exitX=0.5;exitY=1;exitDx=0;exitDy=0;entryX=0.5;entryY=0;entryDx=0;entryDy=0;" parent="9fW68ri5f_B1G1GQeWF7-1" source="9fW68ri5f_B1G1GQeWF7-59" target="9fW68ri5f_B1G1GQeWF7-50" edge="1">
          <mxGeometry relative="1" as="geometry" />
        </mxCell>
        <mxCell id="9fW68ri5f_B1G1GQeWF7-59" value="new SignInProcessor()&lt;br&gt;siginInProcessor.Init()" style="rounded=0;whiteSpace=wrap;html=1;" parent="9fW68ri5f_B1G1GQeWF7-1" vertex="1">
          <mxGeometry x="-20" y="1770" width="160" height="60" as="geometry" />
        </mxCell>
        <mxCell id="9fW68ri5f_B1G1GQeWF7-60" style="edgeStyle=orthogonalEdgeStyle;rounded=0;orthogonalLoop=1;jettySize=auto;html=1;exitX=0.5;exitY=1;exitDx=0;exitDy=0;entryX=0.5;entryY=0;entryDx=0;entryDy=0;" parent="9fW68ri5f_B1G1GQeWF7-1" source="9fW68ri5f_B1G1GQeWF7-61" target="9fW68ri5f_B1G1GQeWF7-59" edge="1">
          <mxGeometry relative="1" as="geometry" />
        </mxCell>
        <mxCell id="9fW68ri5f_B1G1GQeWF7-61" value="introView.Init()&lt;br&gt;: login buttons 노출" style="rounded=0;whiteSpace=wrap;html=1;" parent="9fW68ri5f_B1G1GQeWF7-1" vertex="1">
          <mxGeometry y="1680" width="120" height="60" as="geometry" />
        </mxCell>
        <mxCell id="9fW68ri5f_B1G1GQeWF7-62" style="edgeStyle=orthogonalEdgeStyle;rounded=0;orthogonalLoop=1;jettySize=auto;html=1;exitX=1;exitY=0.5;exitDx=0;exitDy=0;entryX=0;entryY=0.5;entryDx=0;entryDy=0;" parent="9fW68ri5f_B1G1GQeWF7-1" source="9fW68ri5f_B1G1GQeWF7-63" target="9fW68ri5f_B1G1GQeWF7-59" edge="1">
          <mxGeometry relative="1" as="geometry" />
        </mxCell>
        <mxCell id="9fW68ri5f_B1G1GQeWF7-63" value="signInProcessor.account = GameCore.PlayerData.Account" style="rounded=0;whiteSpace=wrap;html=1;" parent="9fW68ri5f_B1G1GQeWF7-1" vertex="1">
          <mxGeometry x="-240" y="1770" width="180" height="60" as="geometry" />
        </mxCell>
        <mxCell id="9fW68ri5f_B1G1GQeWF7-64" style="edgeStyle=orthogonalEdgeStyle;rounded=0;orthogonalLoop=1;jettySize=auto;html=1;exitX=0.5;exitY=1;exitDx=0;exitDy=0;entryX=0.5;entryY=0;entryDx=0;entryDy=0;" parent="9fW68ri5f_B1G1GQeWF7-1" source="9fW68ri5f_B1G1GQeWF7-66" target="9fW68ri5f_B1G1GQeWF7-68" edge="1">
          <mxGeometry relative="1" as="geometry" />
        </mxCell>
        <mxCell id="9fW68ri5f_B1G1GQeWF7-65" style="edgeStyle=orthogonalEdgeStyle;rounded=0;orthogonalLoop=1;jettySize=auto;html=1;exitX=0;exitY=0.5;exitDx=0;exitDy=0;entryX=1;entryY=0.5;entryDx=0;entryDy=0;strokeColor=#000000;" parent="9fW68ri5f_B1G1GQeWF7-1" source="9fW68ri5f_B1G1GQeWF7-66" target="9fW68ri5f_B1G1GQeWF7-103" edge="1">
          <mxGeometry relative="1" as="geometry">
            <Array as="points">
              <mxPoint y="2015" />
              <mxPoint y="1973" />
            </Array>
          </mxGeometry>
        </mxCell>
        <mxCell id="9fW68ri5f_B1G1GQeWF7-66" value="GameCore&lt;br&gt;.createIntroProcessor&lt;br&gt;IsRegistered?" style="rhombus;whiteSpace=wrap;html=1;" parent="9fW68ri5f_B1G1GQeWF7-1" vertex="1">
          <mxGeometry x="180" y="1980" width="230" height="70" as="geometry" />
        </mxCell>
        <mxCell id="9fW68ri5f_B1G1GQeWF7-67" style="edgeStyle=orthogonalEdgeStyle;rounded=0;orthogonalLoop=1;jettySize=auto;html=1;exitX=0.5;exitY=1;exitDx=0;exitDy=0;entryX=0.5;entryY=0;entryDx=0;entryDy=0;" parent="9fW68ri5f_B1G1GQeWF7-1" source="9fW68ri5f_B1G1GQeWF7-68" target="9fW68ri5f_B1G1GQeWF7-72" edge="1">
          <mxGeometry relative="1" as="geometry" />
        </mxCell>
        <mxCell id="9fW68ri5f_B1G1GQeWF7-68" value="IntroProcessorForExistUser&lt;br&gt;: login buttons 숨김&lt;br&gt;: SignIn" style="rounded=0;whiteSpace=wrap;html=1;" parent="9fW68ri5f_B1G1GQeWF7-1" vertex="1">
          <mxGeometry x="209.39" y="2095" width="171.25" height="60" as="geometry" />
        </mxCell>
        <mxCell id="9fW68ri5f_B1G1GQeWF7-69" style="edgeStyle=orthogonalEdgeStyle;rounded=0;orthogonalLoop=1;jettySize=auto;html=1;exitX=0.5;exitY=1;exitDx=0;exitDy=0;entryX=0.5;entryY=0;entryDx=0;entryDy=0;" parent="9fW68ri5f_B1G1GQeWF7-1" source="9fW68ri5f_B1G1GQeWF7-70" target="9fW68ri5f_B1G1GQeWF7-74" edge="1">
          <mxGeometry relative="1" as="geometry" />
        </mxCell>
        <mxCell id="9fW68ri5f_B1G1GQeWF7-70" value=".OnSignedIn&lt;br&gt;: introView.ShowChannelUI()" style="rounded=0;whiteSpace=wrap;html=1;" parent="9fW68ri5f_B1G1GQeWF7-1" vertex="1">
          <mxGeometry x="-410" y="2110" width="290" height="60" as="geometry" />
        </mxCell>
        <mxCell id="9fW68ri5f_B1G1GQeWF7-71" style="edgeStyle=orthogonalEdgeStyle;rounded=0;orthogonalLoop=1;jettySize=auto;html=1;exitX=0.5;exitY=1;exitDx=0;exitDy=0;" parent="9fW68ri5f_B1G1GQeWF7-1" source="9fW68ri5f_B1G1GQeWF7-72" target="9fW68ri5f_B1G1GQeWF7-76" edge="1">
          <mxGeometry relative="1" as="geometry" />
        </mxCell>
        <mxCell id="9fW68ri5f_B1G1GQeWF7-72" value=".OnSignedIn&lt;br&gt;signInProcessor.RequestServerLogin();" style="rounded=0;whiteSpace=wrap;html=1;" parent="9fW68ri5f_B1G1GQeWF7-1" vertex="1">
          <mxGeometry x="150" y="2195" width="290" height="60" as="geometry" />
        </mxCell>
        <mxCell id="9fW68ri5f_B1G1GQeWF7-73" style="edgeStyle=orthogonalEdgeStyle;rounded=0;orthogonalLoop=1;jettySize=auto;html=1;exitX=0.5;exitY=1;exitDx=0;exitDy=0;entryX=0;entryY=0.25;entryDx=0;entryDy=0;" parent="9fW68ri5f_B1G1GQeWF7-1" source="9fW68ri5f_B1G1GQeWF7-74" target="9fW68ri5f_B1G1GQeWF7-76" edge="1">
          <mxGeometry relative="1" as="geometry" />
        </mxCell>
        <mxCell id="9fW68ri5f_B1G1GQeWF7-74" value=".OnSelectedChannel&lt;br&gt;: signInProcessor.TryRequestServerLogin()" style="rounded=0;whiteSpace=wrap;html=1;" parent="9fW68ri5f_B1G1GQeWF7-1" vertex="1">
          <mxGeometry x="-410" y="2210" width="290" height="60" as="geometry" />
        </mxCell>
        <mxCell id="9fW68ri5f_B1G1GQeWF7-75" style="edgeStyle=orthogonalEdgeStyle;rounded=0;orthogonalLoop=1;jettySize=auto;html=1;exitX=0.5;exitY=1;exitDx=0;exitDy=0;entryX=0.5;entryY=0;entryDx=0;entryDy=0;" parent="9fW68ri5f_B1G1GQeWF7-1" source="9fW68ri5f_B1G1GQeWF7-76" target="9fW68ri5f_B1G1GQeWF7-90" edge="1">
          <mxGeometry relative="1" as="geometry" />
        </mxCell>
        <mxCell id="9fW68ri5f_B1G1GQeWF7-76" value="WebHttp.RequestLogin()" style="rounded=0;whiteSpace=wrap;html=1;" parent="9fW68ri5f_B1G1GQeWF7-1" vertex="1">
          <mxGeometry x="217.5" y="2310" width="155" height="60" as="geometry" />
        </mxCell>
        <mxCell id="9fW68ri5f_B1G1GQeWF7-77" style="edgeStyle=orthogonalEdgeStyle;rounded=0;orthogonalLoop=1;jettySize=auto;html=1;exitX=0.5;exitY=1;exitDx=0;exitDy=0;entryX=0.5;entryY=0;entryDx=0;entryDy=0;" parent="9fW68ri5f_B1G1GQeWF7-1" source="9fW68ri5f_B1G1GQeWF7-78" target="9fW68ri5f_B1G1GQeWF7-81" edge="1">
          <mxGeometry relative="1" as="geometry" />
        </mxCell>
        <mxCell id="9fW68ri5f_B1G1GQeWF7-78" value="GameCore.OnServerLogin()&lt;br&gt;: WebHttp.RequestUserInfo()" style="rounded=0;whiteSpace=wrap;html=1;" parent="9fW68ri5f_B1G1GQeWF7-1" vertex="1">
          <mxGeometry x="211.63" y="2490" width="165" height="40" as="geometry" />
        </mxCell>
        <mxCell id="9fW68ri5f_B1G1GQeWF7-79" style="edgeStyle=orthogonalEdgeStyle;rounded=0;orthogonalLoop=1;jettySize=auto;html=1;exitX=0.5;exitY=1;exitDx=0;exitDy=0;entryX=0.5;entryY=0;entryDx=0;entryDy=0;" parent="9fW68ri5f_B1G1GQeWF7-1" source="9fW68ri5f_B1G1GQeWF7-81" target="9fW68ri5f_B1G1GQeWF7-83" edge="1">
          <mxGeometry relative="1" as="geometry" />
        </mxCell>
        <mxCell id="9fW68ri5f_B1G1GQeWF7-80" style="edgeStyle=orthogonalEdgeStyle;rounded=0;orthogonalLoop=1;jettySize=auto;html=1;exitX=0;exitY=0.5;exitDx=0;exitDy=0;entryX=0.5;entryY=0;entryDx=0;entryDy=0;" parent="9fW68ri5f_B1G1GQeWF7-1" source="9fW68ri5f_B1G1GQeWF7-81" target="9fW68ri5f_B1G1GQeWF7-85" edge="1">
          <mxGeometry relative="1" as="geometry" />
        </mxCell>
        <mxCell id="9fW68ri5f_B1G1GQeWF7-81" value="GameCore&lt;br&gt;.OnResponseUserInfo()" style="rounded=0;whiteSpace=wrap;html=1;" parent="9fW68ri5f_B1G1GQeWF7-1" vertex="1">
          <mxGeometry x="211.63" y="2570" width="165" height="60" as="geometry" />
        </mxCell>
        <mxCell id="9fW68ri5f_B1G1GQeWF7-82" style="edgeStyle=orthogonalEdgeStyle;rounded=0;orthogonalLoop=1;jettySize=auto;html=1;exitX=0.5;exitY=1;exitDx=0;exitDy=0;entryX=0.5;entryY=0;entryDx=0;entryDy=0;" parent="9fW68ri5f_B1G1GQeWF7-1" source="9fW68ri5f_B1G1GQeWF7-83" target="9fW68ri5f_B1G1GQeWF7-87" edge="1">
          <mxGeometry relative="1" as="geometry" />
        </mxCell>
        <mxCell id="9fW68ri5f_B1G1GQeWF7-83" value="IntroProcessorForExistUser&lt;br&gt;.OnServerLogin()&lt;br&gt;introView.ShowChannelUI();" style="rounded=0;whiteSpace=wrap;html=1;" parent="9fW68ri5f_B1G1GQeWF7-1" vertex="1">
          <mxGeometry x="215.07" y="2670" width="158.12" height="60" as="geometry" />
        </mxCell>
        <mxCell id="9fW68ri5f_B1G1GQeWF7-84" style="edgeStyle=orthogonalEdgeStyle;rounded=0;orthogonalLoop=1;jettySize=auto;html=1;exitX=0.5;exitY=1;exitDx=0;exitDy=0;entryX=0;entryY=0.5;entryDx=0;entryDy=0;" parent="9fW68ri5f_B1G1GQeWF7-1" source="9fW68ri5f_B1G1GQeWF7-85" target="9fW68ri5f_B1G1GQeWF7-107" edge="1">
          <mxGeometry relative="1" as="geometry" />
        </mxCell>
        <mxCell id="9fW68ri5f_B1G1GQeWF7-85" value="IntroProcessorForFirstUser&lt;br&gt;.OnServerLogin()&lt;br&gt;: characterSettingView.Hide()" style="rounded=0;whiteSpace=wrap;html=1;" parent="9fW68ri5f_B1G1GQeWF7-1" vertex="1">
          <mxGeometry x="-20" y="2670" width="171.25" height="60" as="geometry" />
        </mxCell>
        <mxCell id="9fW68ri5f_B1G1GQeWF7-86" style="edgeStyle=orthogonalEdgeStyle;rounded=0;orthogonalLoop=1;jettySize=auto;html=1;exitX=0.5;exitY=1;exitDx=0;exitDy=0;" parent="9fW68ri5f_B1G1GQeWF7-1" source="9fW68ri5f_B1G1GQeWF7-87" target="9fW68ri5f_B1G1GQeWF7-107" edge="1">
          <mxGeometry relative="1" as="geometry" />
        </mxCell>
        <mxCell id="9fW68ri5f_B1G1GQeWF7-87" value="IntroProcessorForExistUser&lt;br&gt;.OnSelectedChannel" style="rounded=0;whiteSpace=wrap;html=1;" parent="9fW68ri5f_B1G1GQeWF7-1" vertex="1">
          <mxGeometry x="215" y="2770" width="160" height="60" as="geometry" />
        </mxCell>
        <mxCell id="9fW68ri5f_B1G1GQeWF7-88" style="edgeStyle=orthogonalEdgeStyle;rounded=0;orthogonalLoop=1;jettySize=auto;html=1;exitX=0.5;exitY=1;exitDx=0;exitDy=0;entryX=0.5;entryY=0;entryDx=0;entryDy=0;" parent="9fW68ri5f_B1G1GQeWF7-1" source="9fW68ri5f_B1G1GQeWF7-90" target="9fW68ri5f_B1G1GQeWF7-78" edge="1">
          <mxGeometry relative="1" as="geometry" />
        </mxCell>
        <mxCell id="9fW68ri5f_B1G1GQeWF7-89" style="edgeStyle=orthogonalEdgeStyle;rounded=0;orthogonalLoop=1;jettySize=auto;html=1;exitX=0;exitY=0.5;exitDx=0;exitDy=0;entryX=1;entryY=0.5;entryDx=0;entryDy=0;strokeColor=#3333FF;" parent="9fW68ri5f_B1G1GQeWF7-1" source="9fW68ri5f_B1G1GQeWF7-90" target="9fW68ri5f_B1G1GQeWF7-93" edge="1">
          <mxGeometry relative="1" as="geometry" />
        </mxCell>
        <mxCell id="9fW68ri5f_B1G1GQeWF7-90" value="res.result == 0" style="rhombus;whiteSpace=wrap;html=1;" parent="9fW68ri5f_B1G1GQeWF7-1" vertex="1">
          <mxGeometry x="231.88" y="2410" width="126.25" height="40" as="geometry" />
        </mxCell>
        <mxCell id="9fW68ri5f_B1G1GQeWF7-91" style="edgeStyle=orthogonalEdgeStyle;rounded=0;orthogonalLoop=1;jettySize=auto;html=1;exitX=0.75;exitY=1;exitDx=0;exitDy=0;" parent="9fW68ri5f_B1G1GQeWF7-1" source="9fW68ri5f_B1G1GQeWF7-93" edge="1">
          <mxGeometry relative="1" as="geometry">
            <mxPoint x="-159.2800000000001" y="2490" as="targetPoint" />
          </mxGeometry>
        </mxCell>
        <mxCell id="9fW68ri5f_B1G1GQeWF7-92" style="edgeStyle=orthogonalEdgeStyle;rounded=0;orthogonalLoop=1;jettySize=auto;html=1;exitX=0.25;exitY=1;exitDx=0;exitDy=0;strokeColor=#3333FF;" parent="9fW68ri5f_B1G1GQeWF7-1" source="9fW68ri5f_B1G1GQeWF7-93" target="9fW68ri5f_B1G1GQeWF7-98" edge="1">
          <mxGeometry relative="1" as="geometry" />
        </mxCell>
        <mxCell id="9fW68ri5f_B1G1GQeWF7-93" value="GameCore&lt;br&gt;.OnServerLoginFailed(int)" style="rounded=0;whiteSpace=wrap;html=1;" parent="9fW68ri5f_B1G1GQeWF7-1" vertex="1">
          <mxGeometry x="-345" y="2410" width="165" height="40" as="geometry" />
        </mxCell>
        <mxCell id="9fW68ri5f_B1G1GQeWF7-94" style="edgeStyle=orthogonalEdgeStyle;rounded=0;orthogonalLoop=1;jettySize=auto;html=1;exitX=0.5;exitY=1;exitDx=0;exitDy=0;entryX=0.5;entryY=0;entryDx=0;entryDy=0;" parent="9fW68ri5f_B1G1GQeWF7-1" source="9fW68ri5f_B1G1GQeWF7-95" target="9fW68ri5f_B1G1GQeWF7-100" edge="1">
          <mxGeometry relative="1" as="geometry">
            <mxPoint x="-159.3749999999999" y="2550" as="sourcePoint" />
            <Array as="points">
              <mxPoint x="-157" y="2560" />
              <mxPoint x="-262" y="2560" />
            </Array>
          </mxGeometry>
        </mxCell>
        <mxCell id="9fW68ri5f_B1G1GQeWF7-95" value="IntroProcessorForExistUser&lt;br&gt;.OnServerLoginFailed&lt;br&gt;: show alert and restart App" style="rounded=0;whiteSpace=wrap;html=1;" parent="9fW68ri5f_B1G1GQeWF7-1" vertex="1">
          <mxGeometry x="-240" y="2490" width="171.25" height="60" as="geometry" />
        </mxCell>
        <mxCell id="9fW68ri5f_B1G1GQeWF7-96" style="edgeStyle=orthogonalEdgeStyle;rounded=0;orthogonalLoop=1;jettySize=auto;html=1;exitX=0.5;exitY=1;exitDx=0;exitDy=0;entryX=0.5;entryY=0;entryDx=0;entryDy=0;" parent="9fW68ri5f_B1G1GQeWF7-1" source="9fW68ri5f_B1G1GQeWF7-98" target="9fW68ri5f_B1G1GQeWF7-100" edge="1">
          <mxGeometry relative="1" as="geometry" />
        </mxCell>
        <mxCell id="9fW68ri5f_B1G1GQeWF7-97" style="edgeStyle=orthogonalEdgeStyle;rounded=0;orthogonalLoop=1;jettySize=auto;html=1;exitX=0;exitY=0.5;exitDx=0;exitDy=0;entryX=0;entryY=0.25;entryDx=0;entryDy=0;strokeColor=#3333FF;" parent="9fW68ri5f_B1G1GQeWF7-1" source="9fW68ri5f_B1G1GQeWF7-98" target="9fW68ri5f_B1G1GQeWF7-104" edge="1">
          <mxGeometry relative="1" as="geometry">
            <Array as="points">
              <mxPoint x="-640" y="2520" />
              <mxPoint x="-640" y="1930" />
            </Array>
          </mxGeometry>
        </mxCell>
        <mxCell id="9fW68ri5f_B1G1GQeWF7-98" value="IntroProcessorForFirstUser&lt;br&gt;.OnServerLoginFailed&lt;br&gt;&lt;font color=&quot;#3333ff&quot;&gt;: introView.Hide()&lt;br&gt;: characterSettingView.Show()&lt;/font&gt;" style="rounded=0;whiteSpace=wrap;html=1;" parent="9fW68ri5f_B1G1GQeWF7-1" vertex="1">
          <mxGeometry x="-460" y="2490" width="171.25" height="60" as="geometry" />
        </mxCell>
        <mxCell id="9fW68ri5f_B1G1GQeWF7-99" style="edgeStyle=orthogonalEdgeStyle;rounded=0;orthogonalLoop=1;jettySize=auto;html=1;exitX=0.5;exitY=1;exitDx=0;exitDy=0;entryX=0.5;entryY=0;entryDx=0;entryDy=0;" parent="9fW68ri5f_B1G1GQeWF7-1" source="9fW68ri5f_B1G1GQeWF7-100" target="9fW68ri5f_B1G1GQeWF7-101" edge="1">
          <mxGeometry relative="1" as="geometry" />
        </mxCell>
        <mxCell id="9fW68ri5f_B1G1GQeWF7-100" value="PlayerData.Account == null || &quot;&quot;" style="rhombus;whiteSpace=wrap;html=1;" parent="9fW68ri5f_B1G1GQeWF7-1" vertex="1">
          <mxGeometry x="-399" y="2590" width="273" height="50" as="geometry" />
        </mxCell>
        <mxCell id="9fW68ri5f_B1G1GQeWF7-101" value="GameCore.SignOut()" style="rounded=0;whiteSpace=wrap;html=1;" parent="9fW68ri5f_B1G1GQeWF7-1" vertex="1">
          <mxGeometry x="-345" y="2680" width="165" height="40" as="geometry" />
        </mxCell>
        <mxCell id="9fW68ri5f_B1G1GQeWF7-102" value="1. MetaBucket App을 통해 실행됨&lt;br style=&quot;border-color: var(--border-color);&quot;&gt;&lt;font style=&quot;border-color: var(--border-color);&quot; color=&quot;#3333ff&quot;&gt;1.1. 계정 정보 없음 (서버)&lt;/font&gt;&lt;br style=&quot;border-color: var(--border-color);&quot;&gt;2. MetaCore App을 바로 실행함" style="shape=note;whiteSpace=wrap;html=1;backgroundOutline=1;darkOpacity=0.05;fillColor=#fff2cc;strokeColor=#d6b656;" parent="9fW68ri5f_B1G1GQeWF7-1" vertex="1">
          <mxGeometry x="160" y="1800" width="250" height="60" as="geometry" />
        </mxCell>
        <mxCell id="9fW68ri5f_B1G1GQeWF7-103" value="new IntroProcessorForFirstUser()" style="swimlane;whiteSpace=wrap;html=1;" parent="9fW68ri5f_B1G1GQeWF7-1" vertex="1">
          <mxGeometry x="-420" y="1880" width="310" height="185" as="geometry" />
        </mxCell>
        <mxCell id="9fW68ri5f_B1G1GQeWF7-104" value="characterSettingView.Init()&lt;br&gt;: 캐릭터, 이름 입력 대기&lt;br&gt;: siginInProcessor.RequestRegist()" style="rounded=0;whiteSpace=wrap;html=1;" parent="9fW68ri5f_B1G1GQeWF7-103" vertex="1">
          <mxGeometry x="10" y="35" width="290" height="60" as="geometry" />
        </mxCell>
        <mxCell id="9fW68ri5f_B1G1GQeWF7-105" value="MetaBucket or Social Login Button click 대기&lt;br&gt;: signInProcessor.SignIn(selected platform)" style="rounded=0;whiteSpace=wrap;html=1;" parent="9fW68ri5f_B1G1GQeWF7-103" vertex="1">
          <mxGeometry x="10" y="105" width="290" height="60" as="geometry" />
        </mxCell>
        <mxCell id="9fW68ri5f_B1G1GQeWF7-106" style="edgeStyle=orthogonalEdgeStyle;rounded=0;orthogonalLoop=1;jettySize=auto;html=1;exitX=0.5;exitY=1;exitDx=0;exitDy=0;entryX=0.5;entryY=0;entryDx=0;entryDy=0;" parent="9fW68ri5f_B1G1GQeWF7-1" source="9fW68ri5f_B1G1GQeWF7-107" target="9fW68ri5f_B1G1GQeWF7-115" edge="1">
          <mxGeometry relative="1" as="geometry" />
        </mxCell>
        <mxCell id="9fW68ri5f_B1G1GQeWF7-107" value="로그인 완료&lt;br&gt;GameCore.createIntroProcessor&lt;br&gt;: introProcessor.OnCompleted.Subscribe&lt;br&gt;: WebTcp.Init()&lt;br&gt;: WebTcp.Connect()" style="rounded=0;whiteSpace=wrap;html=1;" parent="9fW68ri5f_B1G1GQeWF7-1" vertex="1">
          <mxGeometry x="184.39" y="2870" width="221.25" height="100" as="geometry" />
        </mxCell>
        <mxCell id="9fW68ri5f_B1G1GQeWF7-108" style="edgeStyle=orthogonalEdgeStyle;rounded=0;orthogonalLoop=1;jettySize=auto;html=1;exitX=0.5;exitY=1;exitDx=0;exitDy=0;entryX=0.5;entryY=0;entryDx=0;entryDy=0;" parent="9fW68ri5f_B1G1GQeWF7-1" source="9fW68ri5f_B1G1GQeWF7-109" target="9fW68ri5f_B1G1GQeWF7-112" edge="1">
          <mxGeometry relative="1" as="geometry" />
        </mxCell>
        <mxCell id="9fW68ri5f_B1G1GQeWF7-109" value="WebHttp&lt;br&gt;.ResponseRegist" style="rounded=0;whiteSpace=wrap;html=1;" parent="9fW68ri5f_B1G1GQeWF7-1" vertex="1">
          <mxGeometry x="-610" y="1985" width="120" height="60" as="geometry" />
        </mxCell>
        <mxCell id="9fW68ri5f_B1G1GQeWF7-110" style="edgeStyle=orthogonalEdgeStyle;rounded=0;orthogonalLoop=1;jettySize=auto;html=1;exitX=0;exitY=0.5;exitDx=0;exitDy=0;entryX=0.5;entryY=0;entryDx=0;entryDy=0;" parent="9fW68ri5f_B1G1GQeWF7-1" source="9fW68ri5f_B1G1GQeWF7-104" target="9fW68ri5f_B1G1GQeWF7-109" edge="1">
          <mxGeometry relative="1" as="geometry" />
        </mxCell>
        <mxCell id="9fW68ri5f_B1G1GQeWF7-111" style="edgeStyle=orthogonalEdgeStyle;rounded=0;orthogonalLoop=1;jettySize=auto;html=1;exitX=0.5;exitY=1;exitDx=0;exitDy=0;entryX=0;entryY=0.5;entryDx=0;entryDy=0;" parent="9fW68ri5f_B1G1GQeWF7-1" source="9fW68ri5f_B1G1GQeWF7-112" target="9fW68ri5f_B1G1GQeWF7-76" edge="1">
          <mxGeometry relative="1" as="geometry" />
        </mxCell>
        <mxCell id="9fW68ri5f_B1G1GQeWF7-112" value="GameCore&lt;br&gt;.OnRegistered&lt;br&gt;: account 저장" style="rounded=0;whiteSpace=wrap;html=1;" parent="9fW68ri5f_B1G1GQeWF7-1" vertex="1">
          <mxGeometry x="-610" y="2110" width="120" height="60" as="geometry" />
        </mxCell>
        <mxCell id="9fW68ri5f_B1G1GQeWF7-113" style="edgeStyle=orthogonalEdgeStyle;rounded=0;orthogonalLoop=1;jettySize=auto;html=1;exitX=0.5;exitY=1;exitDx=0;exitDy=0;entryX=0.5;entryY=0;entryDx=0;entryDy=0;" parent="9fW68ri5f_B1G1GQeWF7-1" source="9fW68ri5f_B1G1GQeWF7-105" target="9fW68ri5f_B1G1GQeWF7-70" edge="1">
          <mxGeometry relative="1" as="geometry" />
        </mxCell>
        <mxCell id="9fW68ri5f_B1G1GQeWF7-114" style="edgeStyle=orthogonalEdgeStyle;rounded=0;orthogonalLoop=1;jettySize=auto;html=1;exitX=0.5;exitY=1;exitDx=0;exitDy=0;entryX=0.5;entryY=0;entryDx=0;entryDy=0;" parent="9fW68ri5f_B1G1GQeWF7-1" source="9fW68ri5f_B1G1GQeWF7-115" target="9fW68ri5f_B1G1GQeWF7-116" edge="1">
          <mxGeometry relative="1" as="geometry" />
        </mxCell>
        <mxCell id="9fW68ri5f_B1G1GQeWF7-115" value="WebSocket Server 접속 완료&lt;br&gt;GameCore.OnConnected&lt;br&gt;: requestVerify()" style="rounded=0;whiteSpace=wrap;html=1;" parent="9fW68ri5f_B1G1GQeWF7-1" vertex="1">
          <mxGeometry x="202.63" y="3010" width="183" height="60" as="geometry" />
        </mxCell>
        <mxCell id="9fW68ri5f_B1G1GQeWF7-116" value="GameCore.OnVerified" style="rounded=0;whiteSpace=wrap;html=1;" parent="9fW68ri5f_B1G1GQeWF7-1" vertex="1">
          <mxGeometry x="202.63" y="3110" width="183" height="40" as="geometry" />
        </mxCell>
      </root>
    </mxGraphModel>
  </diagram>
</mxfile>
